<?xml version="1.0" standalone="no"?>
<!DOCTYPE svg PUBLIC "-//W3C//DTD SVG 20010904//EN"
 "http://www.w3.org/TR/2001/REC-SVG-20010904/DTD/svg10.dtd">
<svg version="1.0" xmlns="http://www.w3.org/2000/svg"
 width="512.000000pt" height="512.000000pt" viewBox="0 0 512.000000 512.000000"
 preserveAspectRatio="xMidYMid meet">
<metadata>
Created by potrace 1.11, written by Peter Selinger 2001-2013
</metadata>
<g transform="translate(0.000000,512.000000) scale(0.100000,-0.100000)"
fill="#000000" stroke="none">
<path d="M0 2560 l0 -2560 2560 0 2560 0 0 2560 0 2560 -2560 0 -2560 0 0
-2560z m2814 903 c-23 -103 -108 -207 -204 -252 l-55 -26 -635 -5 -635 -5 -42
-190 c-23 -104 -45 -211 -49 -237 l-7 -48 624 0 c585 0 627 -2 665 -19 68 -31
124 -117 124 -192 0 -42 -122 -612 -143 -669 -26 -71 -102 -151 -180 -190
l-60 -30 -949 0 -948 0 0 28 c1 74 100 198 197 247 l58 30 635 5 635 5 47 225
c26 124 47 231 48 238 0 9 -131 12 -624 12 -417 0 -634 4 -653 11 -60 22 -117
99 -129 176 -3 23 2 75 15 133 11 52 40 192 65 310 59 276 88 339 192 411 88
60 35 58 1067 58 l947 1 -6 -27z m1991 -15 c-4 -23 -18 -90 -31 -148 -27 -120
-51 -161 -132 -227 l-53 -43 -254 0 c-140 0 -255 1 -255 3 0 2 25 21 55 43 57
41 60 45 71 107 l6 37 -532 0 c-477 0 -536 2 -567 17 -62 29 -75 94 -43 214
l11 39 865 0 866 0 -7 -42z m-325 -493 c0 -2 -24 -22 -53 -45 l-54 -40 -247 0
c-148 0 -246 4 -244 9 2 5 23 26 48 45 l45 36 253 0 c138 0 252 -2 252 -5z
m-227 -161 c4 -4 -199 -161 -451 -349 l-458 -341 -23 -105 c-13 -57 -26 -110
-29 -116 -3 -10 107 -13 529 -13 505 0 536 -1 565 -19 48 -29 59 -69 46 -158
-7 -41 -15 -79 -18 -84 -3 -5 -363 -9 -860 -9 -778 0 -855 1 -861 16 -6 17 48
297 73 376 8 25 33 67 55 92 30 34 652 506 914 693 29 21 41 22 271 23 132 0
243 -2 247 -6z"/>
</g>
</svg>
