<?xml version="1.0" standalone="no"?>
<!DOCTYPE svg PUBLIC "-//W3C//DTD SVG 1.1//EN" "http://www.w3.org/Graphics/SVG/1.1/DTD/svg11.dtd" >
<svg>
<metadata>
Created by FontForge 20090622 at Wed Apr 19 23:30:26 2017
 By deploy user
Copyright 2006 House Industries/Brand Design Co., Inc. All Rights Reserved.
</metadata>
<defs>
<font id="UnitedSerifCond-Black" horiz-adv-x="415" >
  <font-face 
    font-family="United Serif Cd Bk"
    font-weight="800"
    font-stretch="normal"
    units-per-em="1000"
    panose-1="0 0 0 0 0 0 0 0 0 0"
    ascent="760"
    descent="-240"
    x-height="513"
    cap-height="690"
    bbox="-28 -176 952 875"
    underline-thickness="50"
    underline-position="-50"
    unicode-range="U+0020-U+FB02"
  />
<missing-glyph horiz-adv-x="591" 
d="M30 770h531v-850h-531v850zM183 344v-151h158v64l18 18h58l74 74v252l-89 89h-213l-89 -89v-132h158v68l23 23h29l23 -23v-101l-18 -18h-58zM183 138v-138h158v138h-158z" />
    <glyph glyph-name=".notdef" horiz-adv-x="591" 
d="M30 770h531v-850h-531v850zM183 344v-151h158v64l18 18h58l74 74v252l-89 89h-213l-89 -89v-132h158v68l23 23h29l23 -23v-101l-18 -18h-58zM183 138v-138h158v138h-158z" />
    <glyph glyph-name=".null" horiz-adv-x="0" 
 />
    <glyph glyph-name="nonmarkingreturn" horiz-adv-x="333" 
 />
    <glyph glyph-name="space" unicode=" " horiz-adv-x="180" 
 />
    <glyph glyph-name="exclam" unicode="!" horiz-adv-x="238" 
d="M40 0v138h158v-138h-158zM40 195v495h158v-495h-158z" />
    <glyph glyph-name="quotedbl" unicode="&#x22;" horiz-adv-x="306" 
d="M20 423v267h113v-267h-113zM172 423v267h114v-267h-114z" />
    <glyph glyph-name="numbersign" unicode="#" horiz-adv-x="439" 
d="M73 166v100h-58v108h58v108h-58v108h58v100h114v-100h65v100h114v-100h58v-108h-58v-108h58v-108h-58v-100h-114v100h-65v-100h-114zM187 374h65v108h-65v-108z" />
    <glyph glyph-name="dollar" unicode="$" horiz-adv-x="441" 
d="M112 20l-89 89v112h158v-48l23 -23h33l23 23v84l-18 18h-142l-74 74v232l89 89h38v95h137v-95h38l89 -89v-112h-158v48l-23 23h-29l-23 -23v-81l18 -18h142l74 -74v-235l-89 -89h-39v-95h-137v95h-41z" />
    <glyph glyph-name="percent" unicode="%" horiz-adv-x="655" 
d="M75 353l-65 65v208l64 64h149l64 -64v-209l-64 -64h-148zM131 437h35l13 13v147l-13 13h-35l-13 -13v-147zM432 0l-64 64v209l64 64h148l65 -65v-208l-64 -64h-149zM489 81h35l13 13v148l-13 13h-35l-13 -13v-148zM129 0l302 690h95l-302 -690h-95z" />
    <glyph glyph-name="ampersand" unicode="&#x26;" horiz-adv-x="466" 
d="M114 0l-89 89v192l71 71l-71 71v178l89 89h215l89 -89v-104h-158v45l-23 23h-31l-23 -23v-111l23 -23h255v-125h-43v-194l-89 -89h-215zM206 125h31l23 23v135h-54l-23 -23v-112z" />
    <glyph glyph-name="quotesingle" unicode="'" horiz-adv-x="154" 
d="M20 423v267h114v-267h-114z" />
    <glyph glyph-name="parenleft" unicode="(" horiz-adv-x="300" 
d="M134 -56l-89 89v623l89 89h151v-135h-59l-23 -23v-485l23 -23h59v-135h-151z" />
    <glyph glyph-name="parenright" unicode=")" horiz-adv-x="300" 
d="M255 33l-89 -89h-151v135h59l23 23v485l-23 23h-59v135h151l89 -89v-623z" />
    <glyph glyph-name="asterisk" unicode="*" horiz-adv-x="292" 
d="M110 411l-86 63l66 59l-85 13l35 101l69 -47l-21 90h116l-21 -90l69 47l35 -101l-85 -12l66 -60l-86 -63l-36 81z" />
    <glyph glyph-name="plus" unicode="+" horiz-adv-x="334" 
d="M10 287v120h95v113h124v-113h95v-120h-95v-114h-124v114h-95z" />
    <glyph glyph-name="comma" unicode="," horiz-adv-x="179" 
d="M20 -109v63h44l8 8v38h-52v158h139v-215l-52 -52h-87z" />
    <glyph glyph-name="hyphen" unicode="-" horiz-adv-x="219" 
d="M10 279v134h199v-134h-199z" />
    <glyph glyph-name="period" unicode="." horiz-adv-x="179" 
d="M20 0v158h139v-158h-139z" />
    <glyph glyph-name="slash" unicode="/" horiz-adv-x="284" 
d="M-10 -66l170 821h134l-170 -821h-134z" />
    <glyph glyph-name="zero" unicode="0" horiz-adv-x="457" 
d="M119 0l-89 89v512l89 89h219l89 -89v-512l-89 -89h-219zM211 130h35l23 23v384l-23 23h-35l-23 -23v-384z" />
    <glyph glyph-name="one" unicode="1" horiz-adv-x="358" 
d="M10 0v135h90v420h-90v135h248v-555h90v-135h-338z" />
    <glyph glyph-name="two" unicode="2" horiz-adv-x="422" 
d="M30 0v316l74 74h122l18 18v139l-13 13h-29l-13 -13v-78h-158v132l89 89h193l89 -89v-280l-74 -74h-122l-18 -18v-89h214v-140h-372z" />
    <glyph glyph-name="three" unicode="3" horiz-adv-x="437" 
d="M109 0l-89 89v129h158v-70l23 -23h30l23 23v112l-23 23h-144v134h144l23 23v97l-23 23h-30l-23 -23v-65h-158v129l89 89h214l89 -89v-178l-71 -71l71 -71v-192l-89 -89h-214z" />
    <glyph glyph-name="four" unicode="4" horiz-adv-x="459" 
d="M204 0v115h44v65h-238v106l71 404h134l-51 -376h84v376h156v-376h45v-134h-45v-65h45v-115h-245z" />
    <glyph glyph-name="five" unicode="5" horiz-adv-x="427" 
d="M114 0l-89 89v131h158v-67l23 -23h20l23 23v168l-18 18h-24l-39 -39h-143v390h373v-140h-215v-132l51 51h89l84 -84v-296l-89 -89h-204z" />
    <glyph glyph-name="six" unicode="6" horiz-adv-x="453" 
d="M119 0l-89 89v512l89 89h220l89 -89v-117h-158v53l-23 23h-36l-23 -23v-151l51 51h105l84 -84v-264l-89 -89h-220zM211 130h36l23 23v136l-18 18h-40l-24 -24v-130z" />
    <glyph glyph-name="seven" unicode="7" 
d="M120 0v259l119 302h-99v-87h-130v216h395v-109l-127 -321v-260h-158z" />
    <glyph glyph-name="eight" unicode="8" horiz-adv-x="455" 
d="M114 0l-89 89v192l71 71l-71 71v178l89 89h227l89 -89v-178l-71 -71l71 -71v-192l-89 -89h-227zM206 125h43l23 23v118l-23 23h-43l-23 -23v-118zM206 413h43l23 23v106l-23 23h-43l-23 -23v-106z" />
    <glyph glyph-name="nine" unicode="9" horiz-adv-x="451" 
d="M114 0l-89 89v124h158v-60l23 -23h34l23 23v158l-51 -51h-103l-84 84v257l89 89h218l89 -89v-512l-89 -89h-218zM201 390h38l24 24v123l-23 23h-34l-23 -23v-129z" />
    <glyph glyph-name="colon" unicode=":" horiz-adv-x="189" 
d="M25 0v158h139v-158h-139zM25 267v158h139v-158h-139z" />
    <glyph glyph-name="semicolon" unicode=";" horiz-adv-x="189" 
d="M25 -109v63h44l8 8v38h-52v158h139v-215l-52 -52h-87zM25 267v158h139v-158h-139z" />
    <glyph glyph-name="less" unicode="&#x3c;" horiz-adv-x="346" 
d="M316 130l-301 142v147l301 142v-141l-180 -75l180 -74v-141z" />
    <glyph glyph-name="equal" unicode="=" horiz-adv-x="311" 
d="M25 369v128h261v-128h-261zM25 187v128h261v-128h-261z" />
    <glyph glyph-name="greater" unicode="&#x3e;" horiz-adv-x="346" 
d="M331 272l-301 -142v141l180 74l-180 75v141l301 -142v-147z" />
    <glyph glyph-name="question" unicode="?" horiz-adv-x="421" 
d="M98 193v151l74 74h58l18 18v101l-23 23h-29l-23 -23v-68h-158v132l89 89h213l89 -89v-252l-74 -74h-58l-18 -18v-64h-158zM98 0v138h158v-138h-158z" />
    <glyph glyph-name="at" unicode="@" horiz-adv-x="805" 
d="M169 -162l-139 139v566l139 139h467l139 -139v-444l-99 -99h-207l-7 64l-64 -64h-105l-80 80v147l80 80h135v95l-12 12h-32l-12 -12v-50h-150v81l80 80h196l80 -80v-334h36l23 23v372l-73 73h-321l-73 -73v-468l73 -73h345v-115h-419zM375 109h26l27 27v87h-53l-12 -12
v-90z" />
    <glyph glyph-name="A" unicode="A" horiz-adv-x="481" 
d="M10 0v115h24l73 460h-45v115h357v-115h-45l73 -460h24v-115h-206v115h25l-9 75h-97l-9 -75h29v-115h-194zM232 582l-34 -276h69l-33 276h-2z" />
    <glyph glyph-name="B" unicode="B" horiz-adv-x="466" 
d="M10 0v115h40v460h-40v115h342l89 -89v-178l-71 -71l71 -71v-192l-89 -89h-342zM208 125h52l23 23v118l-23 23h-52v-164zM208 413h52l23 23v106l-23 23h-52v-152z" />
    <glyph glyph-name="C" unicode="C" horiz-adv-x="437" 
d="M119 0l-89 89v512l89 89h209l89 -89v-154h-158v90l-23 23h-25l-23 -23v-389l23 -23h25l23 23v95h158v-154l-89 -89h-209z" />
    <glyph glyph-name="D" unicode="D" horiz-adv-x="472" 
d="M10 0v115h40v460h-40v115h343l89 -89v-512l-89 -89h-343zM208 130h53l23 23v384l-23 23h-53v-430z" />
    <glyph glyph-name="E" unicode="E" horiz-adv-x="418" 
d="M10 0v115h40v460h-40v115h391v-196h-130v81h-63v-152h145v-140h-145v-168h65v88h130v-203h-393z" />
    <glyph glyph-name="F" unicode="F" horiz-adv-x="406" 
d="M10 0v115h40v460h-40v115h386v-206h-130v91h-58v-172h140v-140h-140v-148h64v-115h-262z" />
    <glyph glyph-name="G" unicode="G" horiz-adv-x="452" 
d="M119 0l-89 89v512l89 89h219l89 -89v-134h-158v70l-23 23h-35l-23 -23v-389l23 -23h35l23 23v101h-50v134h208v-294l-89 -89h-219z" />
    <glyph glyph-name="H" unicode="H" horiz-adv-x="496" 
d="M10 0v115h40v460h-40v115h223v-115h-25v-166h80v166h-25v115h223v-115h-40v-460h40v-115h-223v115h25v145h-80v-145h25v-115h-223z" />
    <glyph glyph-name="I" unicode="I" horiz-adv-x="268" 
d="M10 0v115h45v460h-45v115h248v-115h-45v-460h45v-115h-248z" />
    <glyph glyph-name="J" unicode="J" horiz-adv-x="322" 
d="M5 0v135h86l23 23v417h-55v115h253v-115h-40v-486l-89 -89h-178z" />
    <glyph glyph-name="K" unicode="K" horiz-adv-x="483" 
d="M253 0v115h25l-25 151l-45 -99v-52h22v-115h-220v115h40v460h-40v115h220v-115h-22v-204l69 204h-24v115h213v-115h-36l-70 -159l73 -301h40v-115h-220z" />
    <glyph glyph-name="L" unicode="L" horiz-adv-x="401" 
d="M10 0v115h40v460h-40v115h258v-115h-60v-460h57v145h126v-260h-381z" />
    <glyph glyph-name="M" unicode="M" horiz-adv-x="675" 
d="M10 0v115h40v460h-40v115h279l49 -468l48 468h279v-115h-40v-460h40v-115h-214v115h30v441l-66 -506h-171l-67 503v-438h40v-115h-207z" />
    <glyph glyph-name="N" unicode="N" horiz-adv-x="498" 
d="M10 0v115h40v460h-40v115h164l139 -337v222h-40v115h215v-115h-35v-575h-125l-138 345v-230h40v-115h-220z" />
    <glyph glyph-name="O" unicode="O" horiz-adv-x="457" 
d="M119 0l-89 89v512l89 89h219l89 -89v-512l-89 -89h-219zM211 130h35l23 23v384l-23 23h-35l-23 -23v-384z" />
    <glyph glyph-name="P" unicode="P" horiz-adv-x="450" 
d="M10 0v115h40v460h-40v115h341l89 -89v-275l-89 -89h-143v-122h60v-115h-258zM208 357h51l23 23v167l-23 23h-51v-213z" />
    <glyph glyph-name="Q" unicode="Q" horiz-adv-x="457" 
d="M299 -153l-87 87v66h-93l-89 89v512l89 89h219l89 -89v-512l-89 -89v-6l54 -54zM211 130h35l23 23v384l-23 23h-35l-23 -23v-384z" />
    <glyph glyph-name="R" unicode="R" horiz-adv-x="478" 
d="M10 0v115h40v460h-40v115h344l89 -89v-199l-59 -59l59 -59v-169h25v-115h-123l-60 60v195l-23 23h-54v-163h30v-115h-228zM208 393h54l23 23v136l-23 23h-54v-182z" />
    <glyph glyph-name="S" unicode="S" horiz-adv-x="441" 
d="M112 0l-89 89v132h158v-68l23 -23h33l23 23v104l-18 18h-142l-74 74v252l89 89h213l89 -89v-132h-158v68l-23 23h-29l-23 -23v-101l18 -18h142l74 -74v-255l-89 -89h-217z" />
    <glyph glyph-name="T" unicode="T" horiz-adv-x="474" 
d="M98 0v115h60v460h-28v-121h-120v236h454v-236h-120v121h-28v-460h60v-115h-278z" />
    <glyph glyph-name="U" unicode="U" horiz-adv-x="470" 
d="M129 0l-89 89v486h-30v115h216v-115h-28v-417l23 -23h28l23 23v417h-28v115h216v-115h-30v-486l-89 -89h-212z" />
    <glyph glyph-name="V" unicode="V" horiz-adv-x="482" 
d="M126 0l-86 575h-30v115h223v-115h-35l50 -443l50 443h-34v115h208v-115h-30l-86 -575h-230z" />
    <glyph glyph-name="W" unicode="W" horiz-adv-x="686" 
d="M103 0l-63 575h-30v115h206v-115h-37l26 -409l47 524h200l47 -524l26 409h-36v115h187v-115h-30l-63 -575h-187l-51 537l-50 -537h-192z" />
    <glyph glyph-name="X" unicode="X" horiz-adv-x="469" 
d="M241 0v115h36l-47 175l-48 -175h33v-115h-205v115h22l73 247l-66 213h-29v115h225v-115h-34l41 -176l47 176h-32v115h202v-115h-29l-68 -216l75 -244h22v-115h-218z" />
    <glyph glyph-name="Y" unicode="Y" horiz-adv-x="475" 
d="M99 0v115h60v97l-120 363h-29v115h225v-115h-40l52 -203l55 203h-42v115h205v-115h-29l-120 -363v-97h60v-115h-277z" />
    <glyph glyph-name="Z" unicode="Z" horiz-adv-x="390" 
d="M10 0v115l202 450h-81v-95h-120v220h368v-115l-202 -450h83v98h120v-223h-370z" />
    <glyph glyph-name="bracketleft" unicode="[" horiz-adv-x="300" 
d="M50 -56v801h235v-135h-77v-531h77v-135h-235z" />
    <glyph glyph-name="backslash" unicode="\" horiz-adv-x="284" 
d="M124 755l170 -821h-134l-170 821h134z" />
    <glyph glyph-name="bracketright" unicode="]" horiz-adv-x="300" 
d="M250 745v-801h-235v135h77v531h-77v135h235z" />
    <glyph glyph-name="asciicircum" unicode="^" horiz-adv-x="380" 
d="M5 360l98 330h174l98 -330h-130l-55 240l-55 -240h-130z" />
    <glyph glyph-name="underscore" unicode="_" horiz-adv-x="384" 
d="M-5 -133v105h394v-105h-394z" />
    <glyph glyph-name="grave" unicode="`" horiz-adv-x="237" 
d="M116 545l-66 66v79h71l66 -66v-79h-71z" />
    <glyph glyph-name="a" unicode="a" 
d="M95 0l-80 80v147l80 80h135v95l-12 12h-32l-12 -12v-50h-150v81l80 80h196l80 -80v-328h25v-105h-134l-7 64l-64 -64h-105zM177 109h26l27 27v87h-53l-12 -12v-90z" />
    <glyph glyph-name="b" unicode="b" horiz-adv-x="433" 
d="M10 0v105h28v478h-28v107h178v-227l50 50h90l80 -80v-353l-80 -80h-110l-64 64l-7 -64h-137zM215 109h31l12 12v266l-12 12h-21l-37 -37v-226z" />
    <glyph glyph-name="c" unicode="c" horiz-adv-x="397" 
d="M105 0l-80 80v353l80 80h197l80 -80v-104h-150v68l-12 12h-33l-12 -12v-281l12 -12h33l12 12v68h150v-104l-80 -80h-197z" />
    <glyph glyph-name="d" unicode="d" horiz-adv-x="423" 
d="M100 0l-80 80v353l80 80h90l50 -50v120h-40v107h190v-585h23v-105h-132l-7 64l-64 -64h-110zM182 109h31l27 27v226l-37 37h-21l-12 -12v-266z" />
    <glyph glyph-name="e" unicode="e" 
d="M105 0l-80 80v353l80 80h205l80 -80v-215h-215v-107l12 -12h41l12 12v55h150v-86l-80 -80h-205zM175 312h65v90l-12 12h-41l-12 -12v-90z" />
    <glyph glyph-name="f" unicode="f" horiz-adv-x="292" 
d="M55 105v301h-45v107h45v102l75 75h156v-119h-64l-17 -17v-41h77v-107h-77v-301h55v-105h-250v105h45z" />
    <glyph glyph-name="g" unicode="g" horiz-adv-x="430" 
d="M108 -170l-80 80v74h150v-38l17 -17h33l17 17v122l-50 -50h-90l-80 80v335l80 80h110l64 -64l7 64h134v-107h-25v-496l-80 -80h-207zM187 127h21l37 37v213l-27 27h-31l-12 -12v-253z" />
    <glyph glyph-name="h" unicode="h" horiz-adv-x="433" 
d="M10 0v105h28v478h-28v107h178v-227l50 50h80l80 -80v-328h25v-105h-195v105h20v267l-12 12h-11l-37 -37v-242h20v-105h-198z" />
    <glyph glyph-name="i" unicode="i" horiz-adv-x="245" 
d="M10 0v105h40v301h-40v107h190v-408h35v-105h-225zM50 560v130h150v-130h-150z" />
    <glyph glyph-name="j" unicode="j" horiz-adv-x="230" 
d="M-28 -170v124h66l12 12v440h-39v107h189v-598l-85 -85h-143zM50 560v130h150v-130h-150z" />
    <glyph glyph-name="k" unicode="k" horiz-adv-x="443" 
d="M231 0v105h27l-30 100l-40 -67v-33h18v-105h-196v105h28v478h-28v107h178v-416l71 132h-37v107h211v-107h-33l-67 -95l74 -206h26v-105h-202z" />
    <glyph glyph-name="l" unicode="l" horiz-adv-x="240" 
d="M10 0v105h35v478h-35v107h185v-585h35v-105h-220z" />
    <glyph glyph-name="m" unicode="m" horiz-adv-x="643" 
d="M10 0v105h28v301h-28v107h137l8 -68l68 68h95l58 -58l58 58h94l80 -80v-328h25v-105h-195v105h20v267l-12 12h-11l-37 -37v-242h20v-105h-190v105h20v267l-12 12h-11l-37 -37v-242h20v-105h-198z" />
    <glyph glyph-name="n" unicode="n" horiz-adv-x="433" 
d="M10 0v105h28v301h-28v107h137l8 -68l68 68h95l80 -80v-328h25v-105h-195v105h20v267l-12 12h-11l-37 -37v-242h20v-105h-198z" />
    <glyph glyph-name="o" unicode="o" 
d="M105 0l-80 80v353l80 80h205l80 -80v-353l-80 -80h-205zM187 104h41l12 12v281l-12 12h-41l-12 -12v-281z" />
    <glyph glyph-name="p" unicode="p" horiz-adv-x="433" 
d="M10 -170v105h28v471h-28v107h137l7 -64l64 64h110l80 -80v-353l-80 -80h-100l-40 40v-105h60v-105h-238zM215 114h31l12 12v266l-12 12h-31l-27 -27v-236z" />
    <glyph glyph-name="q" unicode="q" horiz-adv-x="433" 
d="M185 -170v105h60v115l-50 -50h-90l-80 80v353l80 80h110l64 -64l7 64h137v-107h-28v-471h28v-105h-238zM187 114h21l37 37v226l-27 27h-31l-12 -12v-266z" />
    <glyph glyph-name="r" unicode="r" horiz-adv-x="304" 
d="M10 0v105h28v301h-28v107h137l8 -68l68 68h71v-144h-69l-37 -37v-227h50v-105h-228z" />
    <glyph glyph-name="s" unicode="s" horiz-adv-x="401" 
d="M100 0l-80 80v79h150v-43l12 -12h36l12 12v74l-12 12h-132l-60 60v171l80 80h195l80 -80v-78h-150v42l-12 12h-31l-12 -12v-74l12 -12h132l60 -60v-171l-80 -80h-200z" />
    <glyph glyph-name="t" unicode="t" horiz-adv-x="296" 
d="M130 0l-70 70v336h-50v107h50v120h150v-120h76v-107h-76v-289l12 -12h64v-105h-156z" />
    <glyph glyph-name="u" unicode="u" horiz-adv-x="435" 
d="M115 0l-80 80v326h-25v107h175v-372l12 -12h11l37 37v240h-30v107h180v-408h30v-105h-139l-8 68l-68 -68h-95z" />
    <glyph glyph-name="v" unicode="v" 
d="M105 0l-73 406h-22v107h188v-107h-24l36 -311l37 311h-21v107h179v-107h-23l-73 -406h-204z" />
    <glyph glyph-name="w" unicode="w" horiz-adv-x="655" 
d="M77 0l-45 406h-22v107h190v-107h-30l21 -304l46 411h200l46 -411l21 304h-30v107h171v-107h-22l-45 -406h-201l-46 395l-46 -395h-208z" />
    <glyph glyph-name="x" unicode="x" horiz-adv-x="429" 
d="M222 0v105h30l-42 110l-42 -110h33v-105h-191v105h22l69 151l-66 150h-24v107h199v-107h-30l40 -115l41 115h-33v107h190v-107h-28l-64 -137l71 -164h22v-105h-197z" />
    <glyph glyph-name="y" unicode="y" 
d="M105 0l-71 406h-24v107h188v-107h-22l34 -312l35 312h-19v107h179v-107h-25l-88 -506l-70 -70h-180v124h111l22 22l5 24h-75z" />
    <glyph glyph-name="z" unicode="z" horiz-adv-x="357" 
d="M10 0v94l172 308h-65v-60h-102v171h328v-94l-171 -308h73v68h102v-179h-337z" />
    <glyph glyph-name="braceleft" unicode="{" horiz-adv-x="300" 
d="M141 -56l-89 89v227l-21 21h-36v139h36l21 21v215l89 89h144v-135h-52l-23 -23v-180l-55 -55l55 -55v-195l23 -23h52v-135h-144z" />
    <glyph glyph-name="bar" unicode="|" horiz-adv-x="263" 
d="M60 -66v821h143v-821h-143z" />
    <glyph glyph-name="braceright" unicode="}" horiz-adv-x="300" 
d="M248 33l-89 -89h-144v135h52l23 23v195l55 55l-55 55v180l-23 23h-52v135h144l89 -89v-215l21 -21h36v-139h-36l-21 -21v-227z" />
    <glyph glyph-name="asciitilde" unicode="~" horiz-adv-x="385" 
d="M10 516v110l64 64h103l76 -76h9l8 8v68h105v-110l-64 -64h-103l-76 76h-9l-8 -8v-68h-105z" />
    <glyph glyph-name="exclamdown" unicode="&#xa1;" horiz-adv-x="238" 
d="M198 690v-138h-158v138h158zM198 495v-495h-158v495h158z" />
    <glyph glyph-name="cent" unicode="&#xa2;" horiz-adv-x="442" 
d="M119 75l-89 89v362l89 89h39v75h137v-75h38l89 -89v-128h-158v64l-23 23h-30l-23 -23v-239l23 -23h30l23 23v68h158v-127l-89 -89h-38v-75h-137v75h-39z" />
    <glyph glyph-name="sterling" unicode="&#xa3;" horiz-adv-x="450" 
d="M11 0v122l52 52v86h-53v140h53v201l89 89h194l89 -89v-134h-158v75l-18 18h-20l-18 -18v-142h144v-140h-144v-84l-36 -36h250v-140h-424z" />
    <glyph glyph-name="yen" unicode="&#xa5;" horiz-adv-x="475" 
d="M35 261v84h80l-76 230h-29v115h225v-115h-40l52 -203l55 203h-42v115h205v-115h-29l-76 -230h80v-84h-108l-10 -31h118v-84h-124v-31h60v-115h-277v115h60v31h-124v84h118l-10 31h-108z" />
    <glyph glyph-name="section" unicode="&#xa7;" horiz-adv-x="445" 
d="M114 -95l-89 89v114h158v-50l23 -23h33l23 23v95h-180l-54 54v62h392v-275l-89 -89h-217zM28 324v277l89 89h213l89 -89v-114h-158v50l-23 23h-29l-23 -23v-97h180l54 -54v-62h-392z" />
    <glyph glyph-name="dieresis" unicode="&#xa8;" horiz-adv-x="355" 
d="M50 561v102h106v-102h-106zM199 561v102h106v-102h-106z" />
    <glyph glyph-name="copyright" unicode="&#xa9;" horiz-adv-x="689" 
d="M260 158l-50 50v275l50 50h169l50 -50v-99h-111v51l-11 11h-26l-11 -11v-179l11 -11h26l11 11v51h111v-99l-50 -50h-169zM149 0l-119 119v452l119 119h391l119 -119v-452l-119 -119h-391zM213 107h262l58 58v360l-58 58h-262l-58 -58v-360z" />
    <glyph glyph-name="ordfeminine" unicode="&#xaa;" horiz-adv-x="329" 
d="M82 345l-57 57v101l57 57h112v40l-10 10h-33l-10 -10v-11h-110v44l57 57h159l57 -57v-208h12v-80h-93l-10 44l-44 -44h-87zM145 425h38l10 10v57h-48l-10 -10v-47z" />
    <glyph glyph-name="guillemotleft" unicode="&#xab;" horiz-adv-x="408" 
d="M100 145l-95 202l95 203h121l-94 -203l94 -202h-121zM266 145l-94 202l94 203h122l-95 -203l95 -202h-122z" />
    <glyph glyph-name="registered" unicode="&#xae;" horiz-adv-x="375" 
d="M81 287l-66 66v271l66 66h213l66 -66v-271l-66 -66h-213zM106 339h164l35 35v229l-35 35h-164l-35 -35v-229zM107 376v42h12v142h-12v42h124l30 -30v-67l-21 -21l21 -21v-45h10v-42h-40l-20 20v56l-9 9h-33v-43h13v-42h-75zM169 503h33l9 9v42l-6 6h-36v-57z" />
    <glyph glyph-name="macron" unicode="&#xaf;" horiz-adv-x="311" 
d="M50 565v96h211v-96h-211z" />
    <glyph glyph-name="degree" unicode="&#xb0;" horiz-adv-x="279" 
d="M67 429l-47 47v167l47 47h145l47 -47v-167l-47 -47h-145zM111 497h56l13 13v99l-13 13h-56l-13 -13v-99z" />
    <glyph glyph-name="twosuperior" unicode="&#xb2;" horiz-adv-x="323" 
d="M25 317v163l51 51h102l7 8v56l-9 9h-28l-9 -9v-30h-113v68l57 57h158l57 -57v-135l-51 -51h-101l-8 -8v-31h160v-91h-273z" />
    <glyph glyph-name="threesuperior" unicode="&#xb3;" horiz-adv-x="314" 
d="M72 317l-57 57v59h113v-24l9 -9h36l9 9v47l-9 9h-96v80h96l9 9v44l-9 9h-36l-9 -9v-24h-113v59l57 57h165l57 -57v-87l-41 -41l41 -41v-90l-57 -57h-165z" />
    <glyph glyph-name="acute" unicode="&#xb4;" horiz-adv-x="237" 
d="M50 545v79l66 66h71v-79l-66 -66h-71z" />
    <glyph glyph-name="paragraph" unicode="&#xb6;" horiz-adv-x="669" 
d="M249 -95v192h-145l-89 89v415l89 89h555v-115h-40v-669l-158 -1v665h-54v-665h-158zM196 217h53v353h-53l-23 -23v-307z" />
    <glyph glyph-name="periodcentered" unicode="&#xb7;" horiz-adv-x="189" 
d="M25 267v158h139v-158h-139z" />
    <glyph glyph-name="cedilla" unicode="&#xb8;" horiz-adv-x="279" 
d="M50 -176v61h88l4 4v22l-4 4h-41l-21 21v64h75v-30h42l36 -36v-74l-36 -36h-143z" />
    <glyph glyph-name="onesuperior" unicode="&#xb9;" horiz-adv-x="260" 
d="M15 317v91h61v191h-57v91h170v-282h61v-91h-235z" />
    <glyph glyph-name="ordmasculine" unicode="&#xba;" horiz-adv-x="329" 
d="M82 345l-57 57v231l57 57h165l57 -57v-231l-57 -57h-165zM150 430h28l15 15v145l-15 15h-28l-15 -15v-145z" />
    <glyph glyph-name="guillemotright" unicode="&#xbb;" horiz-adv-x="408" 
d="M403 347l-95 -202h-121l94 202l-94 203h121zM236 347l-94 -202h-122l95 202l-95 203h122z" />
    <glyph glyph-name="onequarter" unicode="&#xbc;" horiz-adv-x="721" 
d="M15 317v91h61v191h-57v91h170v-282h61v-91h-235zM145 0l302 690h95l-302 -690h-95zM546 0v76h28v32h-170v58l44 207h96l-26 -180h56v180h111v-180h21v-85h-21v-32h21v-76h-160z" />
    <glyph glyph-name="onehalf" unicode="&#xbd;" horiz-adv-x="715" 
d="M15 317v91h61v191h-57v91h170v-282h61v-91h-235zM145 0l302 690h95l-302 -690h-95zM417 0v163l51 51h102l7 8v56l-9 9h-28l-9 -9v-30h-113v68l57 57h158l57 -57v-135l-51 -51h-101l-8 -8v-31h160v-91h-273z" />
    <glyph glyph-name="threequarters" unicode="&#xbe;" horiz-adv-x="745" 
d="M72 317l-57 57v59h113v-24l9 -9h36l9 9v47l-9 9h-96v80h96l9 9v44l-9 9h-36l-9 -9v-24h-113v59l57 57h165l57 -57v-87l-41 -41l41 -41v-90l-57 -57h-165zM169 0l302 690h95l-302 -690h-95zM570 0v76h28v32h-170v58l44 207h96l-26 -180h56v180h111v-180h21v-85h-21v-32h21
v-76h-160z" />
    <glyph glyph-name="questiondown" unicode="&#xbf;" horiz-adv-x="421" 
d="M323 497v-151l-74 -74h-58l-18 -18v-101l23 -23h29l23 23v68h158v-132l-89 -89h-213l-89 89v252l74 74h58l18 18v64h158zM323 690v-138h-158v138h158z" />
    <glyph glyph-name="Agrave" unicode="&#xc0;" horiz-adv-x="481" 
d="M10 0v115h24l73 460h-45v115h357v-115h-45l73 -460h24v-115h-206v115h25l-9 75h-97l-9 -75h29v-115h-194zM232 582l-34 -276h69l-33 276h-2zM224 730l-66 66v79h71l66 -66v-79h-71z" />
    <glyph glyph-name="Aacute" unicode="&#xc1;" horiz-adv-x="481" 
d="M10 0v115h24l73 460h-45v115h357v-115h-45l73 -460h24v-115h-206v115h25l-9 75h-97l-9 -75h29v-115h-194zM232 582l-34 -276h69l-33 276h-2zM186 730v79l66 66h71v-79l-66 -66h-71z" />
    <glyph glyph-name="Acircumflex" unicode="&#xc2;" horiz-adv-x="481" 
d="M10 0v115h24l73 460h-45v115h357v-115h-45l73 -460h24v-115h-206v115h25l-9 75h-97l-9 -75h29v-115h-194zM232 582l-34 -276h69l-33 276h-2zM115 734v68l65 65h120l65 -65v-68h-60l-63 63h-3l-63 -63h-61z" />
    <glyph glyph-name="Atilde" unicode="&#xc3;" horiz-adv-x="481" 
d="M10 0v115h24l73 460h-45v115h357v-115h-45l73 -460h24v-115h-206v115h25l-9 75h-97l-9 -75h29v-115h-194zM232 582l-34 -276h69l-33 276h-2zM113 738v80l44 44h71l48 -48h11l4 4v44h77v-80l-44 -44h-71l-48 48h-11l-4 -4v-44h-77z" />
    <glyph glyph-name="Adieresis" unicode="&#xc4;" horiz-adv-x="481" 
d="M10 0v115h24l73 460h-45v115h357v-115h-45l73 -460h24v-115h-206v115h25l-9 75h-97l-9 -75h29v-115h-194zM232 582l-34 -276h69l-33 276h-2zM113 746v102h106v-102h-106zM262 746v102h106v-102h-106z" />
    <glyph glyph-name="Aring" unicode="&#xc5;" horiz-adv-x="481" 
d="M10 0v115h24l73 460h-45v115h357v-115h-45l73 -460h24v-115h-206v115h25l-9 75h-97l-9 -75h29v-115h-194zM232 582l-34 -276h69l-33 276h-2zM183 718l-37 37v83l37 37h115l37 -37v-83l-37 -37h-115zM215 766h50l8 8v45l-8 8h-50l-8 -8v-45z" />
    <glyph glyph-name="AE" unicode="&#xc6;" horiz-adv-x="634" 
d="M204 0h-194v115h24l73 460h-45v115h555v-196h-130v81h-113l24 -152h171v-140h-149l27 -168h42v88h130v-203h-354v115h25l-9 75h-97l-9 -75h29v-115zM234 582h-2l-34 -276h69z" />
    <glyph glyph-name="Ccedilla" unicode="&#xc7;" horiz-adv-x="437" 
d="M119 0l-89 89v512l89 89h209l89 -89v-154h-158v90l-23 23h-25l-23 -23v-389l23 -23h25l23 23v95h158v-154l-89 -89h-63v-30h42l36 -36v-74l-36 -36h-143v61h88l4 4v22l-4 4h-41l-21 21v64h-71z" />
    <glyph glyph-name="Egrave" unicode="&#xc8;" horiz-adv-x="418" 
d="M10 0v115h40v460h-40v115h391v-196h-130v81h-63v-152h145v-140h-145v-168h65v88h130v-203h-393zM200 730l-66 66v79h71l66 -66v-79h-71z" />
    <glyph glyph-name="Eacute" unicode="&#xc9;" horiz-adv-x="418" 
d="M10 0v115h40v460h-40v115h391v-196h-130v81h-63v-152h145v-140h-145v-168h65v88h130v-203h-393zM162 730v79l66 66h71v-79l-66 -66h-71z" />
    <glyph glyph-name="Ecircumflex" unicode="&#xca;" horiz-adv-x="418" 
d="M10 0v115h40v460h-40v115h391v-196h-130v81h-63v-152h145v-140h-145v-168h65v88h130v-203h-393zM91 734v68l65 65h120l65 -65v-68h-60l-63 63h-3l-63 -63h-61z" />
    <glyph glyph-name="Edieresis" unicode="&#xcb;" horiz-adv-x="418" 
d="M10 0v115h40v460h-40v115h391v-196h-130v81h-63v-152h145v-140h-145v-168h65v88h130v-203h-393zM89 746v102h106v-102h-106zM238 746v102h106v-102h-106z" />
    <glyph glyph-name="Igrave" unicode="&#xcc;" horiz-adv-x="268" 
d="M10 0v115h45v460h-45v115h248v-115h-45v-460h45v-115h-248zM118 730l-66 66v79h71l66 -66v-79h-71z" />
    <glyph glyph-name="Iacute" unicode="&#xcd;" horiz-adv-x="268" 
d="M10 0v115h45v460h-45v115h248v-115h-45v-460h45v-115h-248zM80 730v79l66 66h71v-79l-66 -66h-71z" />
    <glyph glyph-name="Icircumflex" unicode="&#xce;" horiz-adv-x="268" 
d="M10 0v115h45v460h-45v115h248v-115h-45v-460h45v-115h-248zM9 734v68l65 65h120l65 -65v-68h-60l-63 63h-3l-63 -63h-61z" />
    <glyph glyph-name="Idieresis" unicode="&#xcf;" horiz-adv-x="268" 
d="M10 0v115h45v460h-45v115h248v-115h-45v-460h45v-115h-248zM7 746v102h106v-102h-106zM156 746v102h106v-102h-106z" />
    <glyph glyph-name="Eth" unicode="&#xd0;" horiz-adv-x="472" 
d="M10 279v134h40v162h-40v115h343l89 -89v-512l-89 -89h-343v115h40v164h-40zM208 130h53l23 23v384l-23 23h-53v-147h37v-134h-37v-149z" />
    <glyph glyph-name="Ntilde" unicode="&#xd1;" horiz-adv-x="498" 
d="M10 0v115h40v460h-40v115h164l139 -337v222h-40v115h215v-115h-35v-575h-125l-138 345v-230h40v-115h-220zM122 738v80l44 44h71l48 -48h11l4 4v44h77v-80l-44 -44h-71l-48 48h-11l-4 -4v-44h-77z" />
    <glyph glyph-name="Ograve" unicode="&#xd2;" horiz-adv-x="457" 
d="M119 0l-89 89v512l89 89h219l89 -89v-512l-89 -89h-219zM211 130h35l23 23v384l-23 23h-35l-23 -23v-384zM212 730l-66 66v79h71l66 -66v-79h-71z" />
    <glyph glyph-name="Oacute" unicode="&#xd3;" horiz-adv-x="457" 
d="M119 0l-89 89v512l89 89h219l89 -89v-512l-89 -89h-219zM211 130h35l23 23v384l-23 23h-35l-23 -23v-384zM174 730v79l66 66h71v-79l-66 -66h-71z" />
    <glyph glyph-name="Ocircumflex" unicode="&#xd4;" horiz-adv-x="457" 
d="M119 0l-89 89v512l89 89h219l89 -89v-512l-89 -89h-219zM211 130h35l23 23v384l-23 23h-35l-23 -23v-384zM103 734v68l65 65h120l65 -65v-68h-60l-63 63h-3l-63 -63h-61z" />
    <glyph glyph-name="Otilde" unicode="&#xd5;" horiz-adv-x="457" 
d="M119 0l-89 89v512l89 89h219l89 -89v-512l-89 -89h-219zM211 130h35l23 23v384l-23 23h-35l-23 -23v-384zM101 738v80l44 44h71l48 -48h11l4 4v44h77v-80l-44 -44h-71l-48 48h-11l-4 -4v-44h-77z" />
    <glyph glyph-name="Odieresis" unicode="&#xd6;" horiz-adv-x="457" 
d="M119 0l-89 89v512l89 89h219l89 -89v-512l-89 -89h-219zM211 130h35l23 23v384l-23 23h-35l-23 -23v-384zM101 746v102h106v-102h-106zM250 746v102h106v-102h-106z" />
    <glyph glyph-name="multiply" unicode="&#xd7;" horiz-adv-x="355" 
d="M94 179l-84 84l83 83l-83 84l84 84l83 -84l84 84l84 -84l-84 -84l84 -83l-84 -84l-84 83z" />
    <glyph glyph-name="Oslash" unicode="&#xd8;" horiz-adv-x="457" 
d="M119 0l-89 89v512l89 89h219l89 -89v-512l-89 -89h-219zM177 157l63 412l-1 1h-40l-23 -23v-389zM218 120h40l23 23v390l-1 1l-63 -413z" />
    <glyph glyph-name="Ugrave" unicode="&#xd9;" horiz-adv-x="470" 
d="M129 0l-89 89v486h-30v115h216v-115h-28v-417l23 -23h28l23 23v417h-28v115h216v-115h-30v-486l-89 -89h-212zM219 730l-66 66v79h71l66 -66v-79h-71z" />
    <glyph glyph-name="Uacute" unicode="&#xda;" horiz-adv-x="470" 
d="M129 0l-89 89v486h-30v115h216v-115h-28v-417l23 -23h28l23 23v417h-28v115h216v-115h-30v-486l-89 -89h-212zM181 730v79l66 66h71v-79l-66 -66h-71z" />
    <glyph glyph-name="Ucircumflex" unicode="&#xdb;" horiz-adv-x="470" 
d="M129 0l-89 89v486h-30v115h216v-115h-28v-417l23 -23h28l23 23v417h-28v115h216v-115h-30v-486l-89 -89h-212zM110 734v68l65 65h120l65 -65v-68h-60l-63 63h-3l-63 -63h-61z" />
    <glyph glyph-name="Udieresis" unicode="&#xdc;" horiz-adv-x="470" 
d="M129 0l-89 89v486h-30v115h216v-115h-28v-417l23 -23h28l23 23v417h-28v115h216v-115h-30v-486l-89 -89h-212zM108 746v102h106v-102h-106zM257 746v102h106v-102h-106z" />
    <glyph glyph-name="Yacute" unicode="&#xdd;" horiz-adv-x="475" 
d="M99 0v115h60v97l-120 363h-29v115h225v-115h-40l52 -203l55 203h-42v115h205v-115h-29l-120 -363v-97h60v-115h-277zM183 730v79l66 66h71v-79l-66 -66h-71z" />
    <glyph glyph-name="Thorn" unicode="&#xde;" horiz-adv-x="457" 
d="M10 0v115h40v460h-40v115h258v-115h-60v-31h150l89 -89v-215l-89 -89h-150v-36h60v-115h-258zM208 271h58l23 23v107l-23 23h-58v-153z" />
    <glyph glyph-name="germandbls" unicode="&#xdf;" horiz-adv-x="446" 
d="M10 0v105h28v301h-28v107h28v97l80 80h236l80 -80v-195l-56 -56l56 -56v-223l-80 -80h-141v105h59l12 12v179l-11 11h-60v104h60l11 11v152l-12 12h-72l-12 -12v-574h-178z" />
    <glyph glyph-name="agrave" unicode="&#xe0;" 
d="M95 0l-80 80v147l80 80h135v95l-12 12h-32l-12 -12v-50h-150v81l80 80h196l80 -80v-328h25v-105h-134l-7 64l-64 -64h-105zM177 109h26l27 27v87h-53l-12 -12v-90zM188 545l-66 66v79h71l66 -66v-79h-71z" />
    <glyph glyph-name="aacute" unicode="&#xe1;" 
d="M95 0l-80 80v147l80 80h135v95l-12 12h-32l-12 -12v-50h-150v81l80 80h196l80 -80v-328h25v-105h-134l-7 64l-64 -64h-105zM150 545v79l66 66h71v-79l-66 -66h-71zM177 109h26l27 27v87h-53l-12 -12v-90z" />
    <glyph glyph-name="acircumflex" unicode="&#xe2;" 
d="M95 0l-80 80v147l80 80h135v95l-12 12h-32l-12 -12v-50h-150v81l80 80h196l80 -80v-328h25v-105h-134l-7 64l-64 -64h-105zM177 109h26l27 27v87h-53l-12 -12v-90zM79 549v68l65 65h120l65 -65v-68h-60l-63 63h-3l-63 -63h-61z" />
    <glyph glyph-name="atilde" unicode="&#xe3;" 
d="M95 0l-80 80v147l80 80h135v95l-12 12h-32l-12 -12v-50h-150v81l80 80h196l80 -80v-328h25v-105h-134l-7 64l-64 -64h-105zM177 109h26l27 27v87h-53l-12 -12v-90zM77 553v80l44 44h71l48 -48h11l4 4v44h77v-80l-44 -44h-71l-48 48h-11l-4 -4v-44h-77z" />
    <glyph glyph-name="adieresis" unicode="&#xe4;" 
d="M95 0l-80 80v147l80 80h135v95l-12 12h-32l-12 -12v-50h-150v81l80 80h196l80 -80v-328h25v-105h-134l-7 64l-64 -64h-105zM177 109h26l27 27v87h-53l-12 -12v-90zM77 561v102h106v-102h-106zM226 561v102h106v-102h-106z" />
    <glyph glyph-name="aring" unicode="&#xe5;" 
d="M95 0l-80 80v147l80 80h135v95l-12 12h-32l-12 -12v-50h-150v81l80 80h196l80 -80v-328h25v-105h-134l-7 64l-64 -64h-105zM177 109h26l27 27v87h-53l-12 -12v-90zM147 533l-37 37v83l37 37h115l37 -37v-83l-37 -37h-115zM179 581h50l8 8v45l-8 8h-50l-8 -8v-45z" />
    <glyph glyph-name="ae" unicode="&#xe6;" horiz-adv-x="625" 
d="M100 0l-80 80v147l80 80h135v95l-12 12h-32l-12 -12v-50h-150v81l80 80h161l40 -40l40 40h170l80 -80v-215h-215v-107l12 -12h41l12 12v55h150v-86l-80 -80h-170l-40 40l-40 -40h-170zM182 109h26l27 27v87h-53l-12 -12v-90zM385 312h65v90l-12 12h-41l-12 -12v-90z" />
    <glyph glyph-name="ccedilla" unicode="&#xe7;" horiz-adv-x="397" 
d="M105 0l-80 80v353l80 80h197l80 -80v-104h-150v68l-12 12h-33l-12 -12v-281l12 -12h33l12 12v68h150v-104l-80 -80h-57v-30h42l36 -36v-74l-36 -36h-143v61h88l4 4v22l-4 4h-41l-21 21v64h-65z" />
    <glyph glyph-name="egrave" unicode="&#xe8;" 
d="M105 0l-80 80v353l80 80h205l80 -80v-215h-215v-107l12 -12h41l12 12v55h150v-86l-80 -80h-205zM175 312h65v90l-12 12h-41l-12 -12v-90zM191 545l-66 66v79h71l66 -66v-79h-71z" />
    <glyph glyph-name="eacute" unicode="&#xe9;" 
d="M105 0l-80 80v353l80 80h205l80 -80v-215h-215v-107l12 -12h41l12 12v55h150v-86l-80 -80h-205zM153 545v79l66 66h71v-79l-66 -66h-71zM175 312h65v90l-12 12h-41l-12 -12v-90z" />
    <glyph glyph-name="ecircumflex" unicode="&#xea;" 
d="M105 0l-80 80v353l80 80h205l80 -80v-215h-215v-107l12 -12h41l12 12v55h150v-86l-80 -80h-205zM175 312h65v90l-12 12h-41l-12 -12v-90zM82 549v68l65 65h120l65 -65v-68h-60l-63 63h-3l-63 -63h-61z" />
    <glyph glyph-name="edieresis" unicode="&#xeb;" 
d="M105 0l-80 80v353l80 80h205l80 -80v-215h-215v-107l12 -12h41l12 12v55h150v-86l-80 -80h-205zM175 312h65v90l-12 12h-41l-12 -12v-90zM80 561v102h106v-102h-106zM229 561v102h106v-102h-106z" />
    <glyph glyph-name="igrave" unicode="&#xec;" horiz-adv-x="245" 
d="M10 0v105h40v301h-40v107h190v-408h35v-105h-225zM91 545l-66 66v79h71l66 -66v-79h-71z" />
    <glyph glyph-name="iacute" unicode="&#xed;" horiz-adv-x="245" 
d="M10 0v105h40v301h-40v107h190v-408h35v-105h-225zM53 545v79l66 66h71v-79l-66 -66h-71z" />
    <glyph glyph-name="icircumflex" unicode="&#xee;" horiz-adv-x="245" 
d="M10 0v105h40v301h-40v107h190v-408h35v-105h-225zM-18 549v68l65 65h120l65 -65v-68h-60l-63 63h-3l-63 -63h-61z" />
    <glyph glyph-name="idieresis" unicode="&#xef;" horiz-adv-x="245" 
d="M10 0v105h40v301h-40v107h190v-408h35v-105h-225zM129 561v102h106v-102h-106zM-20 561v102h106v-102h-106z" />
    <glyph glyph-name="eth" unicode="&#xf0;" horiz-adv-x="423" 
d="M105 0l-80 80v353l80 80h90l50 -50v77l-111 111v39h136l95 -95l46 46h29v-102l-45 -45v-414l-80 -80h-210zM187 104h46l12 12v251l-32 32h-26l-12 -12v-271z" />
    <glyph glyph-name="ntilde" unicode="&#xf1;" horiz-adv-x="433" 
d="M10 0v105h28v301h-28v107h137l8 -68l68 68h95l80 -80v-328h25v-105h-195v105h20v267l-12 12h-11l-37 -37v-242h20v-105h-198zM84 553v80l44 44h71l48 -48h11l4 4v44h77v-80l-44 -44h-71l-48 48h-11l-4 -4v-44h-77z" />
    <glyph glyph-name="ograve" unicode="&#xf2;" 
d="M105 0l-80 80v353l80 80h205l80 -80v-353l-80 -80h-205zM187 104h41l12 12v281l-12 12h-41l-12 -12v-281zM191 545l-66 66v79h71l66 -66v-79h-71z" />
    <glyph glyph-name="oacute" unicode="&#xf3;" 
d="M105 0l-80 80v353l80 80h205l80 -80v-353l-80 -80h-205zM187 104h41l12 12v281l-12 12h-41l-12 -12v-281zM153 545v79l66 66h71v-79l-66 -66h-71z" />
    <glyph glyph-name="ocircumflex" unicode="&#xf4;" 
d="M105 0l-80 80v353l80 80h205l80 -80v-353l-80 -80h-205zM187 104h41l12 12v281l-12 12h-41l-12 -12v-281zM82 549v68l65 65h120l65 -65v-68h-60l-63 63h-3l-63 -63h-61z" />
    <glyph glyph-name="otilde" unicode="&#xf5;" 
d="M105 0l-80 80v353l80 80h205l80 -80v-353l-80 -80h-205zM187 104h41l12 12v281l-12 12h-41l-12 -12v-281zM80 553v80l44 44h71l48 -48h11l4 4v44h77v-80l-44 -44h-71l-48 48h-11l-4 -4v-44h-77z" />
    <glyph glyph-name="odieresis" unicode="&#xf6;" 
d="M105 0l-80 80v353l80 80h205l80 -80v-353l-80 -80h-205zM187 104h41l12 12v281l-12 12h-41l-12 -12v-281zM80 561v102h106v-102h-106zM229 561v102h106v-102h-106z" />
    <glyph glyph-name="divide" unicode="&#xf7;" horiz-adv-x="321" 
d="M104 144v103h113v-103h-113zM10 281v128h301v-128h-301zM104 443v103h113v-103h-113z" />
    <glyph glyph-name="oslash" unicode="&#xf8;" 
d="M105 0l-80 80v353l80 80h205l80 -80v-353l-80 -80h-205zM166 184l70 231l-1 1h-53l-17 -17v-214zM180 97h53l17 17v209l-1 1l-70 -226z" />
    <glyph glyph-name="ugrave" unicode="&#xf9;" horiz-adv-x="435" 
d="M115 0l-80 80v326h-25v107h175v-372l12 -12h11l37 37v240h-30v107h180v-408h30v-105h-139l-8 68l-68 -68h-95zM206 545l-66 66v79h71l66 -66v-79h-71z" />
    <glyph glyph-name="uacute" unicode="&#xfa;" horiz-adv-x="435" 
d="M115 0l-80 80v326h-25v107h175v-372l12 -12h11l37 37v240h-30v107h180v-408h30v-105h-139l-8 68l-68 -68h-95zM168 545v79l66 66h71v-79l-66 -66h-71z" />
    <glyph glyph-name="ucircumflex" unicode="&#xfb;" horiz-adv-x="435" 
d="M115 0l-80 80v326h-25v107h175v-372l12 -12h11l37 37v240h-30v107h180v-408h30v-105h-139l-8 68l-68 -68h-95zM97 549v68l65 65h120l65 -65v-68h-60l-63 63h-3l-63 -63h-61z" />
    <glyph glyph-name="udieresis" unicode="&#xfc;" horiz-adv-x="435" 
d="M115 0l-80 80v326h-25v107h175v-372l12 -12h11l37 37v240h-30v107h180v-408h30v-105h-139l-8 68l-68 -68h-95zM95 561v102h106v-102h-106zM244 561v102h106v-102h-106z" />
    <glyph glyph-name="yacute" unicode="&#xfd;" 
d="M105 0l-71 406h-24v107h188v-107h-22l34 -312l35 312h-19v107h179v-107h-25l-88 -506l-70 -70h-180v124h111l22 22l5 24h-75zM153 545v79l66 66h71v-79l-66 -66h-71z" />
    <glyph glyph-name="thorn" unicode="&#xfe;" horiz-adv-x="433" 
d="M10 -170v105h28v648h-28v107h178v-227l50 50h90l80 -80v-353l-80 -80h-100l-40 40v-105h60v-105h-238zM215 114h31l12 12v266l-12 12h-31l-27 -27v-236z" />
    <glyph glyph-name="ydieresis" unicode="&#xff;" 
d="M105 0l-71 406h-24v107h188v-107h-22l34 -312l35 312h-19v107h179v-107h-25l-88 -506l-70 -70h-180v124h111l22 22l5 24h-75zM80 561v102h106v-102h-106zM229 561v102h106v-102h-106z" />
    <glyph glyph-name="Amacron" unicode="&#x100;" horiz-adv-x="481" 
d="M10 0v115h24l73 460h-45v115h357v-115h-45l73 -460h24v-115h-206v115h25l-9 75h-97l-9 -75h29v-115h-194zM232 582l-34 -276h69l-33 276h-2zM135 750v96h211v-96h-211z" />
    <glyph glyph-name="amacron" unicode="&#x101;" 
d="M95 0l-80 80v147l80 80h135v95l-12 12h-32l-12 -12v-50h-150v81l80 80h196l80 -80v-328h25v-105h-134l-7 64l-64 -64h-105zM177 109h26l27 27v87h-53l-12 -12v-90zM99 565v96h211v-96h-211z" />
    <glyph glyph-name="Abreve" unicode="&#x102;" horiz-adv-x="481" 
d="M10 0v115h24l73 460h-45v115h357v-115h-45l73 -460h24v-115h-206v115h25l-9 75h-97l-9 -75h29v-115h-194zM232 582l-34 -276h69l-33 276h-2zM157 734l-44 44v74h91v-37l10 -10h54l10 10v37h90v-74l-44 -44h-167z" />
    <glyph glyph-name="abreve" unicode="&#x103;" 
d="M95 0l-80 80v147l80 80h135v95l-12 12h-32l-12 -12v-50h-150v81l80 80h196l80 -80v-328h25v-105h-134l-7 64l-64 -64h-105zM177 109h26l27 27v87h-53l-12 -12v-90zM121 549l-44 44v74h91v-37l10 -10h54l10 10v37h90v-74l-44 -44h-167z" />
    <glyph glyph-name="Aogonek" unicode="&#x104;" horiz-adv-x="481" 
d="M297 -176l-36 36v81l59 59h-55v115h25l-9 75h-97l-9 -75h29v-115h-194v115h24l73 460h-45v115h357v-115h-45l73 -460h24v-115h-53l-70 -70v-41l4 -4h66v-61h-121zM232 582l-34 -276h69l-33 276h-2z" />
    <glyph glyph-name="aogonek" unicode="&#x105;" 
d="M248 -176l-36 36v81l59 59l-7 64l-64 -64h-105l-80 80v147l80 80h135v95l-12 12h-32l-12 -12v-50h-150v81l80 80h196l80 -80v-328h25v-105h-36l-70 -70v-41l4 -4h66v-61h-121zM177 109h26l27 27v87h-53l-12 -12v-90z" />
    <glyph glyph-name="Cacute" unicode="&#x106;" horiz-adv-x="437" 
d="M119 0l-89 89v512l89 89h209l89 -89v-154h-158v90l-23 23h-25l-23 -23v-389l23 -23h25l23 23v95h158v-154l-89 -89h-209zM169 730v79l66 66h71v-79l-66 -66h-71z" />
    <glyph glyph-name="cacute" unicode="&#x107;" horiz-adv-x="397" 
d="M105 0l-80 80v353l80 80h197l80 -80v-104h-150v68l-12 12h-33l-12 -12v-281l12 -12h33l12 12v68h150v-104l-80 -80h-197zM149 545v79l66 66h71v-79l-66 -66h-71z" />
    <glyph glyph-name="Ccircumflex" unicode="&#x108;" horiz-adv-x="437" 
d="M119 0l-89 89v512l89 89h209l89 -89v-154h-158v90l-23 23h-25l-23 -23v-389l23 -23h25l23 23v95h158v-154l-89 -89h-209zM98 734v68l65 65h120l65 -65v-68h-60l-63 63h-3l-63 -63h-61z" />
    <glyph glyph-name="ccircumflex" unicode="&#x109;" horiz-adv-x="397" 
d="M105 0l-80 80v353l80 80h197l80 -80v-104h-150v68l-12 12h-33l-12 -12v-281l12 -12h33l12 12v68h150v-104l-80 -80h-197zM78 549v68l65 65h120l65 -65v-68h-60l-63 63h-3l-63 -63h-61z" />
    <glyph glyph-name="Ccaron" unicode="&#x10c;" horiz-adv-x="437" 
d="M119 0l-89 89v512l89 89h209l89 -89v-154h-158v90l-23 23h-25l-23 -23v-389l23 -23h25l23 23v95h158v-154l-89 -89h-209zM163 734l-65 65v68h61l63 -63h3l63 63h60v-68l-65 -65h-120z" />
    <glyph glyph-name="ccaron" unicode="&#x10d;" horiz-adv-x="397" 
d="M105 0l-80 80v353l80 80h197l80 -80v-104h-150v68l-12 12h-33l-12 -12v-281l12 -12h33l12 12v68h150v-104l-80 -80h-197zM143 549l-65 65v68h61l63 -63h3l63 63h60v-68l-65 -65h-120z" />
    <glyph glyph-name="Dcaron" unicode="&#x10e;" horiz-adv-x="472" 
d="M10 0v115h40v460h-40v115h343l89 -89v-512l-89 -89h-343zM208 130h53l23 23v384l-23 23h-53v-430zM171 734l-65 65v68h61l63 -63h3l63 63h60v-68l-65 -65h-120z" />
    <glyph glyph-name="dcaron" unicode="&#x10f;" horiz-adv-x="423" 
d="M100 0l-80 80v353l80 80h90l50 -50v120h-40v107h190v-585h23v-105h-132l-7 64l-64 -64h-110zM182 109h31l27 27v226l-37 37h-21l-12 -12v-266zM420 544v146h97v-106l-40 -40h-57z" />
    <glyph glyph-name="Dcroat" unicode="&#x110;" horiz-adv-x="472" 
d="M10 279v134h40v162h-40v115h343l89 -89v-512l-89 -89h-343v115h40v164h-40zM208 130h53l23 23v384l-23 23h-53v-147h37v-134h-37v-149z" />
    <glyph glyph-name="dcroat" unicode="&#x111;" horiz-adv-x="423" 
d="M100 0l-80 80v353l80 80h90l50 -50v120h-40v107h190v-74h43v-94h-43v-417h23v-105h-132l-7 64l-64 -64h-110zM182 109h31l27 27v226l-37 37h-21l-12 -12v-266z" />
    <glyph glyph-name="Emacron" unicode="&#x112;" horiz-adv-x="418" 
d="M10 0v115h40v460h-40v115h391v-196h-130v81h-63v-152h145v-140h-145v-168h65v88h130v-203h-393zM111 750v96h211v-96h-211z" />
    <glyph glyph-name="emacron" unicode="&#x113;" 
d="M105 0l-80 80v353l80 80h205l80 -80v-215h-215v-107l12 -12h41l12 12v55h150v-86l-80 -80h-205zM175 312h65v90l-12 12h-41l-12 -12v-90zM102 565v96h211v-96h-211z" />
    <glyph glyph-name="Edotaccent" unicode="&#x116;" horiz-adv-x="418" 
d="M10 0v115h40v460h-40v115h391v-196h-130v81h-63v-152h145v-140h-145v-168h65v88h130v-203h-393zM180 728l-30 30v72l30 30h73l30 -30v-72l-30 -30h-73z" />
    <glyph glyph-name="edotaccent" unicode="&#x117;" 
d="M105 0l-80 80v353l80 80h205l80 -80v-215h-215v-107l12 -12h41l12 12v55h150v-86l-80 -80h-205zM175 312h65v90l-12 12h-41l-12 -12v-90zM171 543l-30 30v72l30 30h73l30 -30v-72l-30 -30h-73z" />
    <glyph glyph-name="Eogonek" unicode="&#x118;" horiz-adv-x="418" 
d="M10 0v115h40v460h-40v115h391v-196h-130v81h-63v-152h145v-140h-145v-168h65v88h130v-203l-70 -70v-41l4 -4h66v-61h-121l-36 36v81l59 59h-295z" />
    <glyph glyph-name="eogonek" unicode="&#x119;" 
d="M105 0l-80 80v353l80 80h205l80 -80v-215h-215v-107l12 -12h41l12 12v55h150v-86l-150 -150v-41l4 -4h66v-61h-121l-36 36v81l59 59h-107zM175 312h65v90l-12 12h-41l-12 -12v-90z" />
    <glyph glyph-name="Ecaron" unicode="&#x11a;" horiz-adv-x="418" 
d="M10 0v115h40v460h-40v115h391v-196h-130v81h-63v-152h145v-140h-145v-168h65v88h130v-203h-393zM156 734l-65 65v68h61l63 -63h3l63 63h60v-68l-65 -65h-120z" />
    <glyph glyph-name="ecaron" unicode="&#x11b;" 
d="M105 0l-80 80v353l80 80h205l80 -80v-215h-215v-107l12 -12h41l12 12v55h150v-86l-80 -80h-205zM175 312h65v90l-12 12h-41l-12 -12v-90zM147 549l-65 65v68h61l63 -63h3l63 63h60v-68l-65 -65h-120z" />
    <glyph glyph-name="Gcircumflex" unicode="&#x11c;" horiz-adv-x="452" 
d="M119 0l-89 89v512l89 89h219l89 -89v-134h-158v70l-23 23h-35l-23 -23v-389l23 -23h35l23 23v101h-50v134h208v-294l-89 -89h-219zM103 734v68l65 65h120l65 -65v-68h-60l-63 63h-3l-63 -63h-61z" />
    <glyph glyph-name="gcircumflex" unicode="&#x11d;" horiz-adv-x="430" 
d="M108 -170l-80 80v74h150v-38l17 -17h33l17 17v122l-50 -50h-90l-80 80v335l80 80h110l64 -64l7 64h134v-107h-25v-496l-80 -80h-207zM187 127h21l37 37v213l-27 27h-31l-12 -12v-253zM102 549v68l65 65h120l65 -65v-68h-60l-63 63h-3l-63 -63h-61z" />
    <glyph glyph-name="Gbreve" unicode="&#x11e;" horiz-adv-x="452" 
d="M119 0l-89 89v512l89 89h219l89 -89v-134h-158v70l-23 23h-35l-23 -23v-389l23 -23h35l23 23v101h-50v134h208v-294l-89 -89h-219zM145 734l-44 44v74h91v-37l10 -10h54l10 10v37h90v-74l-44 -44h-167z" />
    <glyph glyph-name="gbreve" unicode="&#x11f;" horiz-adv-x="430" 
d="M108 -170l-80 80v74h150v-38l17 -17h33l17 17v122l-50 -50h-90l-80 80v335l80 80h110l64 -64l7 64h134v-107h-25v-496l-80 -80h-207zM187 127h21l37 37v213l-27 27h-31l-12 -12v-253zM144 549l-44 44v74h91v-37l10 -10h54l10 10v37h90v-74l-44 -44h-167z" />
    <glyph glyph-name="Gcommaaccent" unicode="&#x122;" horiz-adv-x="452" 
d="M119 0l-89 89v512l89 89h219l89 -89v-134h-158v70l-23 23h-35l-23 -23v-389l23 -23h35l23 23v101h-50v134h208v-294l-89 -89h-219zM180 -176v146h97v-106l-40 -40h-57z" />
    <glyph glyph-name="gcommaaccent" unicode="&#x123;" horiz-adv-x="430" 
d="M108 -170l-80 80v74h150v-38l17 -17h33l17 17v122l-50 -50h-90l-80 80v335l80 80h110l64 -64l7 64h134v-107h-25v-496l-80 -80h-207zM187 127h21l37 37v213l-27 27h-31l-12 -12v-253zM276 694v-146h-97v106l40 40h57z" />
    <glyph glyph-name="Hcircumflex" unicode="&#x124;" horiz-adv-x="496" 
d="M10 0v115h40v460h-40v115h223v-115h-25v-166h80v166h-25v115h223v-115h-40v-460h40v-115h-223v115h25v145h-80v-145h25v-115h-223zM123 734v68l65 65h120l65 -65v-68h-60l-63 63h-3l-63 -63h-61z" />
    <glyph glyph-name="hcircumflex" unicode="&#x125;" horiz-adv-x="433" 
d="M10 0v105h28v478h-28v107h178v-227l50 50h80l80 -80v-328h25v-105h-195v105h20v267l-12 12h-11l-37 -37v-242h20v-105h-198zM-27 713v68l65 65h120l65 -65v-68h-60l-63 63h-3l-63 -63h-61z" />
    <glyph glyph-name="Imacron" unicode="&#x12a;" horiz-adv-x="268" 
d="M10 0v115h45v460h-45v115h248v-115h-45v-460h45v-115h-248zM29 750v96h211v-96h-211z" />
    <glyph glyph-name="imacron" unicode="&#x12b;" horiz-adv-x="245" 
d="M10 0v105h40v301h-40v107h190v-408h35v-105h-225zM2 565v96h211v-96h-211z" />
    <glyph glyph-name="Iogonek" unicode="&#x12e;" horiz-adv-x="268" 
d="M10 0v115h45v460h-45v115h248v-115h-45v-460h45v-115h-74l-70 -70v-41l4 -4h66v-61h-121l-36 36v81l59 59h-76z" />
    <glyph glyph-name="iogonek" unicode="&#x12f;" horiz-adv-x="245" 
d="M10 0v105h40v301h-40v107h190v-408h35v-105h-63l-70 -70v-41l4 -4h66v-61h-121l-36 36v81l59 59h-64zM50 560v130h150v-130h-150z" />
    <glyph glyph-name="Idotaccent" unicode="&#x130;" horiz-adv-x="268" 
d="M10 0v115h45v460h-45v115h248v-115h-45v-460h45v-115h-248zM98 728l-30 30v72l30 30h73l30 -30v-72l-30 -30h-73z" />
    <glyph glyph-name="dotlessi" unicode="&#x131;" horiz-adv-x="245" 
d="M10 0v105h40v301h-40v107h190v-408h35v-105h-225z" />
    <glyph glyph-name="Jcircumflex" unicode="&#x134;" horiz-adv-x="322" 
d="M5 0v135h86l23 23v417h-55v115h253v-115h-40v-486l-89 -89h-178zM62 734v68l65 65h120l65 -65v-68h-60l-63 63h-3l-63 -63h-61z" />
    <glyph glyph-name="jcircumflex" unicode="&#x135;" horiz-adv-x="230" 
d="M-28 -170v124h66l12 12v440h-39v107h189v-598l-85 -85h-143zM-14 549v68l65 65h120l65 -65v-68h-60l-63 63h-3l-63 -63h-61z" />
    <glyph glyph-name="Kcommaaccent" unicode="&#x136;" horiz-adv-x="483" 
d="M253 0v115h25l-25 151l-45 -99v-52h22v-115h-220v115h40v460h-40v115h220v-115h-22v-204l69 204h-24v115h213v-115h-36l-70 -159l73 -301h40v-115h-220zM193 -176v146h97v-106l-40 -40h-57z" />
    <glyph glyph-name="kcommaaccent" unicode="&#x137;" horiz-adv-x="443" 
d="M231 0v105h27l-30 100l-40 -67v-33h18v-105h-196v105h28v478h-28v107h178v-416l71 132h-37v107h211v-107h-33l-67 -95l74 -206h26v-105h-202zM173 -176v146h97v-106l-40 -40h-57z" />
    <glyph glyph-name="Lacute" unicode="&#x139;" horiz-adv-x="401" 
d="M10 0v115h40v460h-40v115h258v-115h-60v-460h57v145h126v-260h-381zM96 730v79l66 66h71v-79l-66 -66h-71z" />
    <glyph glyph-name="lacute" unicode="&#x13a;" horiz-adv-x="240" 
d="M10 0v105h35v478h-35v107h185v-585h35v-105h-220zM71 718v79l66 66h71v-79l-66 -66h-71z" />
    <glyph glyph-name="Lcommaaccent" unicode="&#x13b;" horiz-adv-x="401" 
d="M10 0v115h40v460h-40v115h258v-115h-60v-460h57v145h126v-260h-381zM152 -176v146h97v-106l-40 -40h-57z" />
    <glyph glyph-name="lcommaaccent" unicode="&#x13c;" horiz-adv-x="240" 
d="M10 0v105h35v478h-35v107h185v-585h35v-105h-220zM72 -176v146h97v-106l-40 -40h-57z" />
    <glyph glyph-name="Lcaron" unicode="&#x13d;" horiz-adv-x="401" 
d="M10 0v115h40v460h-40v115h258v-115h-60v-460h57v145h126v-260h-381zM294 574v146h97v-106l-40 -40h-57z" />
    <glyph glyph-name="lcaron" unicode="&#x13e;" horiz-adv-x="240" 
d="M10 0v105h35v478h-35v107h185v-585h35v-105h-220zM225 544v146h97v-106l-40 -40h-57z" />
    <glyph glyph-name="Lslash" unicode="&#x141;" horiz-adv-x="401" 
d="M10 246v135l40 17v177h-40v115h258v-115h-60v-110l62 27v-135l-62 -27v-215h57v145h126v-260h-381v115h40v148z" />
    <glyph glyph-name="lslash" unicode="&#x142;" horiz-adv-x="240" 
d="M10 272v135l35 15v161h-35v107h185v-204l35 15v-135l-35 -15v-246h35v-105h-220v105h35v182z" />
    <glyph glyph-name="Nacute" unicode="&#x143;" horiz-adv-x="498" 
d="M10 0v115h40v460h-40v115h164l139 -337v222h-40v115h215v-115h-35v-575h-125l-138 345v-230h40v-115h-220zM195 730v79l66 66h71v-79l-66 -66h-71z" />
    <glyph glyph-name="nacute" unicode="&#x144;" horiz-adv-x="433" 
d="M10 0v105h28v301h-28v107h137l8 -68l68 68h95l80 -80v-328h25v-105h-195v105h20v267l-12 12h-11l-37 -37v-242h20v-105h-198zM157 545v79l66 66h71v-79l-66 -66h-71z" />
    <glyph glyph-name="Ncommaaccent" unicode="&#x145;" horiz-adv-x="498" 
d="M10 0v115h40v460h-40v115h164l139 -337v222h-40v115h215v-115h-35v-575h-125l-138 345v-230h40v-115h-220zM201 -176v146h97v-106l-40 -40h-57z" />
    <glyph glyph-name="ncommaaccent" unicode="&#x146;" horiz-adv-x="433" 
d="M10 0v105h28v301h-28v107h137l8 -68l68 68h95l80 -80v-328h25v-105h-195v105h20v267l-12 12h-11l-37 -37v-242h20v-105h-198zM163 -176v146h97v-106l-40 -40h-57z" />
    <glyph glyph-name="Ncaron" unicode="&#x147;" horiz-adv-x="498" 
d="M10 0v115h40v460h-40v115h164l139 -337v222h-40v115h215v-115h-35v-575h-125l-138 345v-230h40v-115h-220zM189 734l-65 65v68h61l63 -63h3l63 63h60v-68l-65 -65h-120z" />
    <glyph glyph-name="ncaron" unicode="&#x148;" horiz-adv-x="433" 
d="M10 0v105h28v301h-28v107h137l8 -68l68 68h95l80 -80v-328h25v-105h-195v105h20v267l-12 12h-11l-37 -37v-242h20v-105h-198zM151 549l-65 65v68h61l63 -63h3l63 63h60v-68l-65 -65h-120z" />
    <glyph glyph-name="Omacron" unicode="&#x14c;" horiz-adv-x="457" 
d="M119 0l-89 89v512l89 89h219l89 -89v-512l-89 -89h-219zM211 130h35l23 23v384l-23 23h-35l-23 -23v-384zM123 750v96h211v-96h-211z" />
    <glyph glyph-name="omacron" unicode="&#x14d;" 
d="M105 0l-80 80v353l80 80h205l80 -80v-353l-80 -80h-205zM187 104h41l12 12v281l-12 12h-41l-12 -12v-281zM102 565v96h211v-96h-211z" />
    <glyph glyph-name="Ohungarumlaut" unicode="&#x150;" horiz-adv-x="457" 
d="M119 0l-89 89v512l89 89h219l89 -89v-512l-89 -89h-219zM211 130h35l23 23v384l-23 23h-35l-23 -23v-384zM133 730v79l66 66h41v-79l-66 -66h-41zM263 730v79l66 66h41v-79l-66 -66h-41z" />
    <glyph glyph-name="ohungarumlaut" unicode="&#x151;" 
d="M105 0l-80 80v353l80 80h205l80 -80v-353l-80 -80h-205zM187 104h41l12 12v281l-12 12h-41l-12 -12v-281zM112 545v79l66 66h41v-79l-66 -66h-41zM242 545v79l66 66h41v-79l-66 -66h-41z" />
    <glyph glyph-name="OE" unicode="&#x152;" horiz-adv-x="632" 
d="M119 0l-89 89v512l89 89h496v-196h-130v81h-63v-152h145v-140h-145v-168h65v88h130v-203h-498zM211 130h53v430h-53l-23 -23v-384z" />
    <glyph glyph-name="oe" unicode="&#x153;" horiz-adv-x="630" 
d="M105 0l-80 80v353l80 80h170l40 -40l40 40h170l80 -80v-215h-215v-107l12 -12h41l12 12v55h150v-86l-80 -80h-170l-40 40l-40 -40h-170zM187 104h41l12 12v281l-12 12h-41l-12 -12v-281zM390 312h65v90l-12 12h-41l-12 -12v-90z" />
    <glyph glyph-name="Racute" unicode="&#x154;" horiz-adv-x="478" 
d="M10 0v115h40v460h-40v115h344l89 -89v-199l-59 -59l59 -59v-169h25v-115h-123l-60 60v195l-23 23h-54v-163h30v-115h-228zM208 393h54l23 23v136l-23 23h-54v-182zM175 730v79l66 66h71v-79l-66 -66h-71z" />
    <glyph glyph-name="racute" unicode="&#x155;" horiz-adv-x="304" 
d="M10 0v105h28v301h-28v107h137l8 -68l68 68h71v-144h-69l-37 -37v-227h50v-105h-228zM118 545v79l66 66h71v-79l-66 -66h-71z" />
    <glyph glyph-name="Rcommaaccent" unicode="&#x156;" horiz-adv-x="478" 
d="M10 0v115h40v460h-40v115h344l89 -89v-199l-59 -59l59 -59v-169h25v-115h-123l-60 60v195l-23 23h-54v-163h30v-115h-228zM208 393h54l23 23v136l-23 23h-54v-182zM202 -176v146h97v-106l-40 -40h-57z" />
    <glyph glyph-name="rcommaaccent" unicode="&#x157;" horiz-adv-x="304" 
d="M10 0v105h28v301h-28v107h137l8 -68l68 68h71v-144h-69l-37 -37v-227h50v-105h-228zM64 -176v146h97v-106l-40 -40h-57z" />
    <glyph glyph-name="Rcaron" unicode="&#x158;" horiz-adv-x="478" 
d="M10 0v115h40v460h-40v115h344l89 -89v-199l-59 -59l59 -59v-169h25v-115h-123l-60 60v195l-23 23h-54v-163h30v-115h-228zM208 393h54l23 23v136l-23 23h-54v-182zM169 734l-65 65v68h61l63 -63h3l63 63h60v-68l-65 -65h-120z" />
    <glyph glyph-name="rcaron" unicode="&#x159;" horiz-adv-x="304" 
d="M10 0v105h28v301h-28v107h137l8 -68l68 68h71v-144h-69l-37 -37v-227h50v-105h-228zM112 549l-65 65v68h61l63 -63h3l63 63h60v-68l-65 -65h-120z" />
    <glyph glyph-name="Sacute" unicode="&#x15a;" horiz-adv-x="441" 
d="M112 0l-89 89v132h158v-68l23 -23h33l23 23v104l-18 18h-142l-74 74v252l89 89h213l89 -89v-132h-158v68l-23 23h-29l-23 -23v-101l18 -18h142l74 -74v-255l-89 -89h-217zM166 730v79l66 66h71v-79l-66 -66h-71z" />
    <glyph glyph-name="sacute" unicode="&#x15b;" horiz-adv-x="401" 
d="M100 0l-80 80v79h150v-43l12 -12h36l12 12v74l-12 12h-132l-60 60v171l80 80h195l80 -80v-78h-150v42l-12 12h-31l-12 -12v-74l12 -12h132l60 -60v-171l-80 -80h-200zM146 545v79l66 66h71v-79l-66 -66h-71z" />
    <glyph glyph-name="Scircumflex" unicode="&#x15c;" horiz-adv-x="441" 
d="M112 0l-89 89v132h158v-68l23 -23h33l23 23v104l-18 18h-142l-74 74v252l89 89h213l89 -89v-132h-158v68l-23 23h-29l-23 -23v-101l18 -18h142l74 -74v-255l-89 -89h-217zM95 734v68l65 65h120l65 -65v-68h-60l-63 63h-3l-63 -63h-61z" />
    <glyph glyph-name="scircumflex" unicode="&#x15d;" horiz-adv-x="401" 
d="M100 0l-80 80v79h150v-43l12 -12h36l12 12v74l-12 12h-132l-60 60v171l80 80h195l80 -80v-78h-150v42l-12 12h-31l-12 -12v-74l12 -12h132l60 -60v-171l-80 -80h-200zM75 549v68l65 65h120l65 -65v-68h-60l-63 63h-3l-63 -63h-61z" />
    <glyph glyph-name="Scedilla" unicode="&#x15e;" horiz-adv-x="441" 
d="M112 0l-89 89v132h158v-68l23 -23h33l23 23v104l-18 18h-142l-74 74v252l89 89h213l89 -89v-132h-158v68l-23 23h-29l-23 -23v-101l18 -18h142l74 -74v-255l-89 -89h-67v-30h42l36 -36v-74l-36 -36h-143v61h88l4 4v22l-4 4h-41l-21 21v64h-75z" />
    <glyph glyph-name="scedilla" unicode="&#x15f;" horiz-adv-x="401" 
d="M100 0l-80 80v79h150v-43l12 -12h36l12 12v74l-12 12h-132l-60 60v171l80 80h195l80 -80v-78h-150v42l-12 12h-31l-12 -12v-74l12 -12h132l60 -60v-171l-80 -80h-58v-30h42l36 -36v-74l-36 -36h-143v61h88l4 4v22l-4 4h-41l-21 21v64h-67z" />
    <glyph glyph-name="Scaron" unicode="&#x160;" horiz-adv-x="441" 
d="M112 0l-89 89v132h158v-68l23 -23h33l23 23v104l-18 18h-142l-74 74v252l89 89h213l89 -89v-132h-158v68l-23 23h-29l-23 -23v-101l18 -18h142l74 -74v-255l-89 -89h-217zM160 734l-65 65v68h61l63 -63h3l63 63h60v-68l-65 -65h-120z" />
    <glyph glyph-name="scaron" unicode="&#x161;" horiz-adv-x="401" 
d="M100 0l-80 80v79h150v-43l12 -12h36l12 12v74l-12 12h-132l-60 60v171l80 80h195l80 -80v-78h-150v42l-12 12h-31l-12 -12v-74l12 -12h132l60 -60v-171l-80 -80h-200zM140 549l-65 65v68h61l63 -63h3l63 63h60v-68l-65 -65h-120z" />
    <glyph glyph-name="Tcommaaccent" unicode="&#x162;" horiz-adv-x="474" 
d="M98 0v115h60v460h-28v-121h-120v236h454v-236h-120v121h-28v-460h60v-115h-278zM189 -176v146h97v-106l-40 -40h-57z" />
    <glyph glyph-name="tcommaaccent" unicode="&#x163;" horiz-adv-x="296" 
d="M130 0l-70 70v336h-50v107h50v120h150v-120h76v-107h-76v-289l12 -12h64v-105h-156zM120 -176v146h97v-106l-40 -40h-57z" />
    <glyph glyph-name="Tcaron" unicode="&#x164;" horiz-adv-x="474" 
d="M98 0v115h60v460h-28v-121h-120v236h454v-236h-120v121h-28v-460h60v-115h-278zM177 734l-65 65v68h61l63 -63h3l63 63h60v-68l-65 -65h-120z" />
    <glyph glyph-name="tcaron" unicode="&#x165;" horiz-adv-x="296" 
d="M130 0l-70 70v336h-50v107h50v120h150v-120h76v-107h-76v-289l12 -12h64v-105h-156zM246 550v146h97v-106l-40 -40h-57z" />
    <glyph glyph-name="Umacron" unicode="&#x16a;" horiz-adv-x="470" 
d="M129 0l-89 89v486h-30v115h216v-115h-28v-417l23 -23h28l23 23v417h-28v115h216v-115h-30v-486l-89 -89h-212zM130 750v96h211v-96h-211z" />
    <glyph glyph-name="umacron" unicode="&#x16b;" horiz-adv-x="435" 
d="M115 0l-80 80v326h-25v107h175v-372l12 -12h11l37 37v240h-30v107h180v-408h30v-105h-139l-8 68l-68 -68h-95zM117 565v96h211v-96h-211z" />
    <glyph glyph-name="Ubreve" unicode="&#x16c;" horiz-adv-x="470" 
d="M129 0l-89 89v486h-30v115h216v-115h-28v-417l23 -23h28l23 23v417h-28v115h216v-115h-30v-486l-89 -89h-212zM152 734l-44 44v74h91v-37l10 -10h54l10 10v37h90v-74l-44 -44h-167z" />
    <glyph glyph-name="ubreve" unicode="&#x16d;" horiz-adv-x="435" 
d="M115 0l-80 80v326h-25v107h175v-372l12 -12h11l37 37v240h-30v107h180v-408h30v-105h-139l-8 68l-68 -68h-95zM139 549l-44 44v74h91v-37l10 -10h54l10 10v37h90v-74l-44 -44h-167z" />
    <glyph glyph-name="Uring" unicode="&#x16e;" horiz-adv-x="470" 
d="M129 0l-89 89v486h-30v115h216v-115h-28v-417l23 -23h28l23 23v417h-28v115h216v-115h-30v-486l-89 -89h-212zM178 718l-37 37v83l37 37h115l37 -37v-83l-37 -37h-115zM210 766h50l8 8v45l-8 8h-50l-8 -8v-45z" />
    <glyph glyph-name="uring" unicode="&#x16f;" horiz-adv-x="435" 
d="M115 0l-80 80v326h-25v107h175v-372l12 -12h11l37 37v240h-30v107h180v-408h30v-105h-139l-8 68l-68 -68h-95zM165 533l-37 37v83l37 37h115l37 -37v-83l-37 -37h-115zM197 581h50l8 8v45l-8 8h-50l-8 -8v-45z" />
    <glyph glyph-name="Uhungarumlaut" unicode="&#x170;" horiz-adv-x="470" 
d="M129 0l-89 89v486h-30v115h216v-115h-28v-417l23 -23h28l23 23v417h-28v115h216v-115h-30v-486l-89 -89h-212zM140 730v79l66 66h41v-79l-66 -66h-41zM270 730v79l66 66h41v-79l-66 -66h-41z" />
    <glyph glyph-name="uhungarumlaut" unicode="&#x171;" horiz-adv-x="435" 
d="M115 0l-80 80v326h-25v107h175v-372l12 -12h11l37 37v240h-30v107h180v-408h30v-105h-139l-8 68l-68 -68h-95zM127 545v79l66 66h41v-79l-66 -66h-41zM257 545v79l66 66h41v-79l-66 -66h-41z" />
    <glyph glyph-name="Uogonek" unicode="&#x172;" horiz-adv-x="470" 
d="M129 0l-89 89v486h-30v115h216v-115h-28v-417l23 -23h28l23 23v417h-28v115h216v-115h-30v-486l-89 -89h-56l-70 -70v-41l4 -4h66v-61h-121l-36 36v81l59 59h-58z" />
    <glyph glyph-name="uogonek" unicode="&#x173;" horiz-adv-x="435" 
d="M263 -176l-36 36v81l59 59l-8 68l-68 -68h-95l-80 80v326h-25v107h175v-372l12 -12h11l37 37v240h-30v107h180v-408h30v-105h-41l-70 -70v-41l4 -4h66v-61h-121z" />
    <glyph glyph-name="Ydieresis" unicode="&#x178;" horiz-adv-x="475" 
d="M99 0v115h60v97l-120 363h-29v115h225v-115h-40l52 -203l55 203h-42v115h205v-115h-29l-120 -363v-97h60v-115h-277zM110 746v102h106v-102h-106zM259 746v102h106v-102h-106z" />
    <glyph glyph-name="Zacute" unicode="&#x179;" horiz-adv-x="390" 
d="M10 0v115l202 450h-81v-95h-120v220h368v-115l-202 -450h83v98h120v-223h-370zM141 730v79l66 66h71v-79l-66 -66h-71z" />
    <glyph glyph-name="zacute" unicode="&#x17a;" horiz-adv-x="357" 
d="M10 0v94l172 308h-65v-60h-102v171h328v-94l-171 -308h73v68h102v-179h-337zM124 545v79l66 66h71v-79l-66 -66h-71z" />
    <glyph glyph-name="Zdotaccent" unicode="&#x17b;" horiz-adv-x="390" 
d="M10 0v115l202 450h-81v-95h-120v220h368v-115l-202 -450h83v98h120v-223h-370zM159 728l-30 30v72l30 30h73l30 -30v-72l-30 -30h-73z" />
    <glyph glyph-name="zdotaccent" unicode="&#x17c;" horiz-adv-x="357" 
d="M10 0v94l172 308h-65v-60h-102v171h328v-94l-171 -308h73v68h102v-179h-337zM142 543l-30 30v72l30 30h73l30 -30v-72l-30 -30h-73z" />
    <glyph glyph-name="Zcaron" unicode="&#x17d;" horiz-adv-x="390" 
d="M10 0v115l202 450h-81v-95h-120v220h368v-115l-202 -450h83v98h120v-223h-370zM135 734l-65 65v68h61l63 -63h3l63 63h60v-68l-65 -65h-120z" />
    <glyph glyph-name="zcaron" unicode="&#x17e;" horiz-adv-x="357" 
d="M10 0v94l172 308h-65v-60h-102v171h328v-94l-171 -308h73v68h102v-179h-337zM118 549l-65 65v68h61l63 -63h3l63 63h60v-68l-65 -65h-120z" />
    <glyph glyph-name="florin" unicode="&#x192;" horiz-adv-x="347" 
d="M10 0v130h50l23 23v149h-73v136h73v163l89 89h165v-130h-73l-23 -23v-99h96v-136h-96v-213l-89 -89h-142z" />
    <glyph glyph-name="Scommaaccent" unicode="&#x218;" horiz-adv-x="441" 
d="M112 0l-89 89v132h158v-68l23 -23h33l23 23v104l-18 18h-142l-74 74v252l89 89h213l89 -89v-132h-158v68l-23 23h-29l-23 -23v-101l18 -18h142l74 -74v-255l-89 -89h-217zM172 -176v146h97v-106l-40 -40h-57z" />
    <glyph glyph-name="scommaaccent" unicode="&#x219;" horiz-adv-x="401" 
d="M100 0l-80 80v79h150v-43l12 -12h36l12 12v74l-12 12h-132l-60 60v171l80 80h195l80 -80v-78h-150v42l-12 12h-31l-12 -12v-74l12 -12h132l60 -60v-171l-80 -80h-200zM152 -176v146h97v-106l-40 -40h-57z" />
    <glyph glyph-name="uni0237" unicode="&#x237;" horiz-adv-x="230" 
d="M-28 -170v124h66l12 12v440h-39v107h189v-598l-85 -85h-143z" />
    <glyph glyph-name="circumflex" unicode="&#x2c6;" horiz-adv-x="350" 
d="M50 549v68l65 65h120l65 -65v-68h-60l-63 63h-3l-63 -63h-61z" />
    <glyph glyph-name="caron" unicode="&#x2c7;" horiz-adv-x="350" 
d="M115 549l-65 65v68h61l63 -63h3l63 63h60v-68l-65 -65h-120z" />
    <glyph glyph-name="breve" unicode="&#x2d8;" horiz-adv-x="355" 
d="M94 549l-44 44v74h91v-37l10 -10h54l10 10v37h90v-74l-44 -44h-167z" />
    <glyph glyph-name="dotaccent" unicode="&#x2d9;" horiz-adv-x="233" 
d="M80 543l-30 30v72l30 30h73l30 -30v-72l-30 -30h-73z" />
    <glyph glyph-name="ring" unicode="&#x2da;" horiz-adv-x="289" 
d="M87 533l-37 37v83l37 37h115l37 -37v-83l-37 -37h-115zM119 581h50l8 8v45l-8 8h-50l-8 -8v-45z" />
    <glyph glyph-name="ogonek" unicode="&#x2db;" horiz-adv-x="257" 
d="M86 -176l-36 36v81l59 59h98l-70 -70v-41l4 -4h66v-61h-121z" />
    <glyph glyph-name="tilde" unicode="&#x2dc;" horiz-adv-x="355" 
d="M50 553v80l44 44h71l48 -48h11l4 4v44h77v-80l-44 -44h-71l-48 48h-11l-4 -4v-44h-77z" />
    <glyph glyph-name="hungarumlaut" unicode="&#x2dd;" horiz-adv-x="337" 
d="M50 545v79l66 66h41v-79l-66 -66h-41zM180 545v79l66 66h41v-79l-66 -66h-41z" />
    <glyph glyph-name="endash" unicode="&#x2013;" horiz-adv-x="309" 
d="M10 279v134h289v-134h-289z" />
    <glyph glyph-name="emdash" unicode="&#x2014;" horiz-adv-x="411" 
d="M10 279v134h391v-134h-391z" />
    <glyph glyph-name="quoteleft" unicode="&#x2018;" horiz-adv-x="189" 
d="M25 433v205l52 52h87v-63h-39l-13 -13v-33h52v-148h-139z" />
    <glyph glyph-name="quoteright" unicode="&#x2019;" horiz-adv-x="189" 
d="M164 690v-205l-52 -52h-87v63h39l13 13v33h-52v148h139z" />
    <glyph glyph-name="quotesinglbase" unicode="&#x201a;" horiz-adv-x="189" 
d="M25 -109v63h39l13 13v33h-52v148h139v-205l-52 -52h-87z" />
    <glyph glyph-name="quotedblleft" unicode="&#x201c;" horiz-adv-x="363" 
d="M25 433v205l52 52h87v-63h-39l-13 -13v-33h52v-148h-139zM199 433v205l52 52h87v-63h-39l-13 -13v-33h52v-148h-139z" />
    <glyph glyph-name="quotedblright" unicode="&#x201d;" horiz-adv-x="363" 
d="M338 690v-205l-52 -52h-87v63h39l13 13v33h-52v148h139zM164 690v-205l-52 -52h-87v63h39l13 13v33h-52v148h139z" />
    <glyph glyph-name="quotedblbase" unicode="&#x201e;" horiz-adv-x="363" 
d="M25 -109v63h39l13 13v33h-52v148h139v-205l-52 -52h-87zM199 -109v63h39l13 13v33h-52v148h139v-205l-52 -52h-87z" />
    <glyph glyph-name="dagger" unicode="&#x2020;" horiz-adv-x="260" 
d="M75 266v233h-60v98h60v93h110v-93h60v-98h-60v-233h-110z" />
    <glyph glyph-name="daggerdbl" unicode="&#x2021;" horiz-adv-x="260" 
d="M75 266v78h-60v98h60v72h-60v98h60v78h110v-78h60v-98h-60v-72h60v-98h-60v-78h-110z" />
    <glyph glyph-name="bullet" unicode="&#x2022;" horiz-adv-x="249" 
d="M68 223l-53 53v133l53 53h113l53 -53v-133l-53 -53h-113z" />
    <glyph glyph-name="ellipsis" unicode="&#x2026;" horiz-adv-x="519" 
d="M17 0v158h139v-158h-139zM190 0v158h139v-158h-139zM363 0v158h139v-158h-139z" />
    <glyph glyph-name="perthousand" unicode="&#x2030;" horiz-adv-x="962" 
d="M75 353l-65 65v208l64 64h149l64 -64v-209l-64 -64h-148zM131 437h35l13 13v147l-13 13h-35l-13 -13v-147zM432 0l-64 64v209l64 64h148l65 -65v-208l-64 -64h-149zM489 81h35l13 13v148l-13 13h-35l-13 -13v-148zM739 0l-64 64v209l64 64h148l65 -65v-208l-64 -64h-149z
M796 81h35l13 13v148l-13 13h-35l-13 -13v-148zM129 0l302 690h95l-302 -690h-95z" />
    <glyph glyph-name="guilsinglleft" unicode="&#x2039;" horiz-adv-x="241" 
d="M99 145l-94 202l94 203h122l-95 -203l95 -202h-122z" />
    <glyph glyph-name="guilsinglright" unicode="&#x203a;" horiz-adv-x="241" 
d="M236 347l-94 -202h-122l95 202l-95 203h122z" />
    <glyph glyph-name="fraction" unicode="&#x2044;" horiz-adv-x="397" 
d="M0 0l302 690h95l-302 -690h-95z" />
    <glyph glyph-name="Euro" unicode="&#x20ac;" horiz-adv-x="467" 
d="M15 367v89h40v145l89 89h214l89 -89v-114h-158v50l-23 23h-30l-23 -23v-81h162v-89h-162v-39h162v-89h-162v-91l23 -23h30l23 23v55h158v-114l-89 -89h-214l-89 89v150h-40v89h40v39h-40z" />
    <glyph glyph-name="servicemark" unicode="&#x2120;" horiz-adv-x="547" 
d="M58 404l-43 43v38h71v-15l9 -9h28l9 9v42l-4 4h-75l-38 38v93l43 43h102l43 -43v-39h-71v16l-9 9h-28l-9 -9v-43l4 -4h75l38 -38v-92l-43 -43h-102zM217 404v57h20v172h-20v57h122l36 -206l35 206h122v-57h-20v-172h20v-57h-97v57h13v178l-40 -217h-74l-40 216v-177h13
v-57h-90z" />
    <glyph glyph-name="trademark" unicode="&#x2122;" horiz-adv-x="561" 
d="M231 404v57h20v172h-20v57h122l36 -206l35 206h122v-57h-20v-172h20v-57h-97v57h13v178l-40 -217h-74l-40 216v-177h13v-57h-90zM52 404v57h25v172h-24v-43h-48v100h215v-100h-48v43h-24v-172h25v-57h-121z" />
    <glyph glyph-name="minus" unicode="&#x2212;" horiz-adv-x="274" 
d="M10 280v134h254v-134h-254z" />
    <glyph glyph-name="fi" unicode="&#xfb01;" horiz-adv-x="537" 
d="M55 105v301h-45v107h45v102l75 75h156v-119h-64l-17 -17v-41h77v-107h-77v-301h55v-105h-250v105h45zM302 0v105h40v301h-40v107h190v-408h35v-105h-225zM342 560v130h150v-130h-150z" />
    <glyph glyph-name="fl" unicode="&#xfb02;" horiz-adv-x="532" 
d="M55 105v301h-45v107h45v102l75 75h156v-119h-64l-17 -17v-41h77v-107h-77v-301h55v-105h-250v105h45zM302 0v105h35v478h-35v107h185v-585h35v-105h-220z" />
    <glyph glyph-name="commaaccent" horiz-adv-x="197" 
d="M50 -176v146h97v-106l-40 -40h-57z" />
    <glyph glyph-name="published" horiz-adv-x="689" 
d="M197 158v72h30v231h-30v72h237l50 -50v-155l-50 -50h-100v-48h43v-72h-180zM149 0l-119 119v452l119 119h391l119 -119v-452l-119 -119h-391zM213 107h262l58 58v360l-58 58h-262l-58 -58v-360zM334 350h35l8 8v95l-8 8h-35v-111z" />
    <glyph glyph-name="G.alt" horiz-adv-x="457" 
d="M119 0l-89 89v512l89 89h219l89 -89v-134h-158v70l-23 23h-35l-23 -23v-389l23 -23h35l23 23v101h-50v134h208v-383h-108l-11 57l-57 -57h-132z" />
    <glyph glyph-name="Gbreve.alt" horiz-adv-x="457" 
d="M119 0l-89 89v512l89 89h219l89 -89v-134h-158v70l-23 23h-35l-23 -23v-389l23 -23h35l23 23v101h-50v134h208v-383h-108l-11 57l-57 -57h-132zM145 734l-44 44v74h91v-37l10 -10h54l10 10v37h90v-74l-44 -44h-167z" />
    <glyph glyph-name="Gcircumflex.alt" horiz-adv-x="457" 
d="M119 0l-89 89v512l89 89h219l89 -89v-134h-158v70l-23 23h-35l-23 -23v-389l23 -23h35l23 23v101h-50v134h208v-383h-108l-11 57l-57 -57h-132zM103 734v68l65 65h120l65 -65v-68h-60l-63 63h-3l-63 -63h-61z" />
    <glyph glyph-name="Gcommaaccent.alt" horiz-adv-x="457" 
d="M119 0l-89 89v512l89 89h219l89 -89v-134h-158v70l-23 23h-35l-23 -23v-389l23 -23h35l23 23v101h-50v134h208v-383h-108l-11 57l-57 -57h-132zM180 -176v146h97v-106l-40 -40h-57z" />
    <glyph glyph-name="J.alt" horiz-adv-x="447" 
d="M104 0l-89 89v186h158v-117l23 -23h20l23 23v417h-55v115h253v-115h-40v-486l-89 -89h-204z" />
    <glyph glyph-name="Jcircumflex.alt" horiz-adv-x="447" 
d="M104 0l-89 89v186h158v-117l23 -23h20l23 23v417h-55v115h253v-115h-40v-486l-89 -89h-204zM187 734v68l65 65h120l65 -65v-68h-60l-63 63h-3l-63 -63h-61z" />
    <glyph glyph-name="Q.alt" horiz-adv-x="457" 
d="M119 0l-89 89v512l89 89h219l89 -89v-512l-51 -51l66 -65l-92 -92l-119 119h-112zM211 130h35l23 23v384l-23 23h-35l-23 -23v-384z" />
    <glyph glyph-name="a.alt" horiz-adv-x="428" 
d="M105 0l-80 80v353l80 80h105l64 -64l7 64h137v-107h-28v-301h28v-105h-137l-7 64l-64 -64h-105zM187 109h26l27 27v241l-27 27h-26l-12 -12v-271z" />
    <glyph glyph-name="aacute.alt" horiz-adv-x="428" 
d="M105 0l-80 80v353l80 80h105l64 -64l7 64h137v-107h-28v-301h28v-105h-137l-7 64l-64 -64h-105zM187 109h26l27 27v241l-27 27h-26l-12 -12v-271zM172 545v79l66 66h71v-79l-66 -66h-71z" />
    <glyph glyph-name="agrave.alt" horiz-adv-x="428" 
d="M105 0l-80 80v353l80 80h105l64 -64l7 64h137v-107h-28v-301h28v-105h-137l-7 64l-64 -64h-105zM187 109h26l27 27v241l-27 27h-26l-12 -12v-271zM210 545l-66 66v79h71l66 -66v-79h-71z" />
    <glyph glyph-name="acircumflex.alt" horiz-adv-x="428" 
d="M105 0l-80 80v353l80 80h105l64 -64l7 64h137v-107h-28v-301h28v-105h-137l-7 64l-64 -64h-105zM187 109h26l27 27v241l-27 27h-26l-12 -12v-271zM101 549v68l65 65h120l65 -65v-68h-60l-63 63h-3l-63 -63h-61z" />
    <glyph glyph-name="adieresis.alt" horiz-adv-x="428" 
d="M105 0l-80 80v353l80 80h105l64 -64l7 64h137v-107h-28v-301h28v-105h-137l-7 64l-64 -64h-105zM187 109h26l27 27v241l-27 27h-26l-12 -12v-271zM99 561v102h106v-102h-106zM248 561v102h106v-102h-106z" />
    <glyph glyph-name="atilde.alt" horiz-adv-x="428" 
d="M105 0l-80 80v353l80 80h105l64 -64l7 64h137v-107h-28v-301h28v-105h-137l-7 64l-64 -64h-105zM187 109h26l27 27v241l-27 27h-26l-12 -12v-271zM99 553v80l44 44h71l48 -48h11l4 4v44h77v-80l-44 -44h-71l-48 48h-11l-4 -4v-44h-77z" />
    <glyph glyph-name="aring.alt" horiz-adv-x="428" 
d="M105 0l-80 80v353l80 80h105l64 -64l7 64h137v-107h-28v-301h28v-105h-137l-7 64l-64 -64h-105zM187 109h26l27 27v241l-27 27h-26l-12 -12v-271zM169 533l-37 37v83l37 37h115l37 -37v-83l-37 -37h-115zM201 581h50l8 8v45l-8 8h-50l-8 -8v-45z" />
    <glyph glyph-name="abreve.alt" horiz-adv-x="428" 
d="M105 0l-80 80v353l80 80h105l64 -64l7 64h137v-107h-28v-301h28v-105h-137l-7 64l-64 -64h-105zM187 109h26l27 27v241l-27 27h-26l-12 -12v-271zM143 549l-44 44v74h91v-37l10 -10h54l10 10v37h90v-74l-44 -44h-167z" />
    <glyph glyph-name="amacron.alt" horiz-adv-x="428" 
d="M105 0l-80 80v353l80 80h105l64 -64l7 64h137v-107h-28v-301h28v-105h-137l-7 64l-64 -64h-105zM187 109h26l27 27v241l-27 27h-26l-12 -12v-271zM121 565v96h211v-96h-211z" />
    <glyph glyph-name="aogonek.alt" horiz-adv-x="428" 
d="M258 -176l-36 36v81l59 59l-7 64l-64 -64h-105l-80 80v353l80 80h105l64 -64l7 64h137v-107h-28v-301h28v-105h-39l-70 -70v-41l4 -4h66v-61h-121zM187 109h26l27 27v241l-27 27h-26l-12 -12v-271z" />
    <glyph glyph-name="g.alt" horiz-adv-x="425" 
d="M90 -170l-75 75v88l62 62l-31 31v42l37 37l-58 58v220l70 70h320v-107h-70l45 -45v-128l-80 -80h-131v-46h166l75 -75v-127l-75 -75h-255zM187 247h41l12 12v138l-12 12h-41l-12 -12v-138zM175 -68h89l12 12v45l-12 12h-89l-12 -12v-45z" />
    <glyph glyph-name="gbreve.alt" horiz-adv-x="425" 
d="M90 -170l-75 75v88l62 62l-31 31v42l37 37l-58 58v220l70 70h320v-107h-70l45 -45v-128l-80 -80h-131v-46h166l75 -75v-127l-75 -75h-255zM187 247h41l12 12v138l-12 12h-41l-12 -12v-138zM175 -68h89l12 12v45l-12 12h-89l-12 -12v-45zM134 549l-44 44v74h91v-37l10 -10
h54l10 10v37h90v-74l-44 -44h-167z" />
    <glyph glyph-name="gcircumflex.alt" horiz-adv-x="425" 
d="M90 -170l-75 75v88l62 62l-31 31v42l37 37l-58 58v220l70 70h320v-107h-70l45 -45v-128l-80 -80h-131v-46h166l75 -75v-127l-75 -75h-255zM187 247h41l12 12v138l-12 12h-41l-12 -12v-138zM175 -68h89l12 12v45l-12 12h-89l-12 -12v-45zM92 549v68l65 65h120l65 -65v-68
h-60l-63 63h-3l-63 -63h-61z" />
    <glyph glyph-name="gcommaaccent.alt" horiz-adv-x="425" 
d="M90 -170l-75 75v88l62 62l-31 31v42l37 37l-58 58v220l70 70h320v-107h-70l45 -45v-128l-80 -80h-131v-46h166l75 -75v-127l-75 -75h-255zM187 247h41l12 12v138l-12 12h-41l-12 -12v-138zM175 -68h89l12 12v45l-12 12h-89l-12 -12v-45zM266 694v-146h-97v106l40 40h57z
" />
    <glyph glyph-name="at.alt1" horiz-adv-x="856" 
d="M32 0v551l139 139h516l139 -139v-451l-100 -100h-212l-7 64l-64 -64h-138l-75 75v155l75 75h158v82l-17 17h-36l-17 -17v-48h-158v107l75 75h236l75 -75v-332h36l23 23v360l-73 73h-354l-73 -73v-497h-148zM405 115h31l27 27v65h-58l-17 -17v-58z" />
    <glyph glyph-name="at.alt2" horiz-adv-x="805" 
d="M169 -162l-139 139v566l139 139h467l139 -139v-444l-99 -99h-207l-7 64l-64 -64h-105l-80 80v353l80 80h105l64 -64l7 64h109v-414h36l23 23v372l-73 73h-321l-73 -73v-468l73 -73h345v-115h-419zM375 109h26l27 27v241l-27 27h-26l-12 -12v-271z" />
    <glyph glyph-name="at.alt3" horiz-adv-x="856" 
d="M32 0v551l139 139h516l139 -139v-451l-100 -100h-212l-7 64l-64 -64h-133l-75 75v371l75 75h133l64 -64l7 64h107v-407h36l23 23v360l-73 73h-354l-73 -73v-497h-148zM410 115h26l27 27v237l-27 27h-26l-17 -17v-257z" />
    <glyph glyph-name="ampersand.alt" horiz-adv-x="468" 
d="M114 0l-89 89v223l60 60l-60 60v169l89 89h215l89 -89v-105h-158v46l-23 23h-31l-23 -23v-80l107 -107v68h158v-344l-79 -79h-255zM206 125h61l23 23v19l-98 98l-9 -9v-108z" />
    <glyph glyph-name="ordfeminine.alt" horiz-adv-x="329" 
d="M82 345l-57 57v231l57 57h87l44 -44l10 44h93v-80h-12v-185h12v-80h-93l-10 44l-44 -44h-87zM150 425h28l15 15v155l-15 15h-28l-15 -15v-155z" />
    <glyph glyph-name="zero.tabular" horiz-adv-x="405" 
d="M113 0l-89 89v512l89 89h179l89 -89v-512l-89 -89h-179zM183 119h39l18 18v416l-18 18h-39l-18 -18v-416z" />
    <glyph glyph-name="one.tabular" horiz-adv-x="405" 
d="M44 0v120h93v450h-93v120h236v-570h87v-120h-323z" />
    <glyph glyph-name="two.tabular" horiz-adv-x="405" 
d="M32 0v306l74 74h116l13 13v165l-13 13h-35l-13 -13v-89h-141v132l89 89h165l89 -89v-273l-74 -74h-116l-13 -13v-111h203v-130h-344z" />
    <glyph glyph-name="three.tabular" horiz-adv-x="405" 
d="M108 0l-89 89v129h141v-84l18 -18h44l18 18v134l-20 20h-134v124h134l20 20v119l-18 18h-44l-18 -18v-79h-141v129l89 89h184l89 -89v-190l-59 -59l59 -59v-204l-89 -89h-184z" />
    <glyph glyph-name="four.tabular" horiz-adv-x="405" 
d="M180 0v115h44v65h-214v91l54 419h127l-39 -391h72v391h141v-391h28v-119h-28v-65h28v-115h-213z" />
    <glyph glyph-name="five.tabular" horiz-adv-x="405" 
d="M118 0l-89 89v131h141v-77l23 -23h24l23 23v180l-18 18h-28l-39 -39h-126v388h343v-128h-202v-147l46 46h81l84 -84v-288l-89 -89h-174z" />
    <glyph glyph-name="six.tabular" horiz-adv-x="405" 
d="M113 0l-89 89v512l89 89h182l89 -89v-117h-141v69l-18 18h-42l-18 -18v-167l51 51h84l84 -84v-264l-89 -89h-182zM183 120h42l18 18v161l-18 18h-36l-24 -24v-155z" />
    <glyph glyph-name="seven.tabular" horiz-adv-x="405" 
d="M127 0v259l111 307h-98v-92h-120v216h365v-109l-117 -325v-256h-141z" />
    <glyph glyph-name="eight.tabular" horiz-adv-x="405" 
d="M112 0l-89 89v197l66 66l-66 66v183l89 89h181l89 -89v-183l-66 -66l66 -66v-197l-89 -89h-181zM185 115h35l21 21v137l-21 21h-35l-21 -21v-137zM185 408h35l21 21v125l-21 21h-35l-21 -21v-125z" />
    <glyph glyph-name="nine.tabular" horiz-adv-x="405" 
d="M110 0l-89 89v124h141v-76l18 -18h42l18 18v174l-51 -51h-84l-84 84v257l89 89h182l89 -89v-512l-89 -89h-182zM180 380h36l24 24v148l-18 18h-42l-18 -18v-154z" />
    <glyph glyph-name="plus.tabular" horiz-adv-x="405" 
d="M36 287v120h105v123h124v-123h105v-120h-105v-124h-124v124h-105z" />
    <glyph glyph-name="minus.tabular" horiz-adv-x="405" 
d="M66 280v134h274v-134h-274z" />
    <glyph glyph-name="multiply.tabular" horiz-adv-x="405" 
d="M119 179l-84 84l83 83l-83 84l84 84l83 -84l84 84l84 -84l-84 -84l84 -83l-84 -84l-84 83z" />
    <glyph glyph-name="divide.tabular" horiz-adv-x="405" 
d="M146 144v103h113v-103h-113zM42 281v128h321v-128h-321zM146 443v103h113v-103h-113z" />
    <glyph glyph-name="equal.tabular" horiz-adv-x="405" 
d="M62 369v128h281v-128h-281zM62 187v128h281v-128h-281z" />
    <glyph glyph-name="greater.tabular" horiz-adv-x="405" 
d="M360 272l-301 -142v141l180 74l-180 75v141l301 -142v-147z" />
    <glyph glyph-name="less.tabular" horiz-adv-x="405" 
d="M346 130l-301 142v147l301 142v-141l-180 -75l180 -74v-141z" />
    <glyph glyph-name="numbersign.tabular" horiz-adv-x="405" 
d="M71 166v100h-57v98h57v128h-57v98h57v100h104v-100h55v100h104v-100h57v-98h-57v-128h57v-98h-57v-100h-104v100h-55v-100h-104zM175 364h55v128h-55v-128z" />
    <glyph glyph-name="dollar.tabular" horiz-adv-x="405" 
d="M110 20l-84 84v117h141v-63l18 -18h35l18 18v104l-18 18h-117l-74 74v232l84 84h27v95h127v-95h27l84 -84v-117h-141v63l-18 18h-31l-18 -18v-101l18 -18h117l74 -74v-235l-84 -84h-28v-95h-127v95h-30z" />
    <glyph glyph-name="cent.tabular" horiz-adv-x="405" 
d="M115 75l-84 84v372l84 84h29v75h127v-75h28l84 -84v-133h-141v79l-18 18h-34l-18 -18v-269l18 -18h34l18 18v83h141v-132l-84 -84h-28v-75h-127v75h-29z" />
    <glyph glyph-name="sterling.tabular" horiz-adv-x="405" 
d="M20 0v127l35 35v108h-36v127h36v204l89 89h153l89 -89v-134h-141v88l-15 15h-19l-15 -15v-158h120v-127h-120v-104l-36 -36h226v-130h-366z" />
    <glyph glyph-name="yen.tabular" horiz-adv-x="405" 
d="M20 266v79h78l-64 230h-24v115h182v-115h-22l39 -201l42 201h-24v115h168v-115h-24l-64 -230h78v-79h-100l-10 -36h110v-79h-112v-36h60v-115h-261v115h60v36h-112v79h110l-10 36h-100z" />
    <glyph glyph-name="florin.tabular" horiz-adv-x="405" 
d="M37 0v130h60l23 23v149h-83v136h83v163l89 89h158v-130h-83l-23 -23v-99h106v-136h-106v-213l-89 -89h-135z" />
    <glyph glyph-name="Euro.tabular" horiz-adv-x="405" 
d="M13 367v89h35v145l89 89h163l89 -89v-114h-141v65l-18 18h-23l-18 -18v-96h128v-89h-128v-39h128v-89h-128v-106l18 -18h23l18 18v70h141v-114l-89 -89h-163l-89 89v150h-35v89h35v39h-35z" />
    <glyph glyph-name="section.tabular" horiz-adv-x="405" 
d="M114 -95l-89 89v124h141v-75l18 -18h37l18 18v120h-157l-54 54v52h352v-275l-89 -89h-177zM28 324v277l89 89h173l89 -89v-124h-141v75l-18 18h-33l-18 -18v-122h157l54 -54v-52h-352z" />
    <glyph glyph-name="space.tabular" horiz-adv-x="202" 
 />
    <glyph glyph-name="colon.tabular" horiz-adv-x="202" 
d="M32 0v158h139v-158h-139zM32 267v158h139v-158h-139z" />
    <glyph glyph-name="semicolon.tabular" horiz-adv-x="202" 
d="M34 -109v63h44l8 8v38h-52v158h139v-215l-52 -52h-87zM34 267v158h139v-158h-139z" />
    <glyph glyph-name="comma.tabular" horiz-adv-x="202" 
d="M32 -109v63h44l8 8v38h-52v158h139v-215l-52 -52h-87z" />
    <glyph glyph-name="period.tabular" horiz-adv-x="202" 
d="M32 0v158h139v-158h-139z" />
    <glyph glyph-name="parenleft.tabular" horiz-adv-x="245" 
d="M115 -56l-79 79v643l79 79h114v-125h-39l-13 -13v-525l13 -13h39v-125h-114z" />
    <glyph glyph-name="parenright.tabular" horiz-adv-x="245" 
d="M209 23l-79 -79h-114v125h39l13 13v525l-13 13h-39v125h114l79 -79v-643z" />
    <glyph glyph-name="bracketleft.tabular" horiz-adv-x="245" 
d="M38 -56v801h193v-125h-52v-551h52v-125h-193z" />
    <glyph glyph-name="bracketright.tabular" horiz-adv-x="245" 
d="M207 745v-801h-193v125h52v551h-52v125h193z" />
    <glyph glyph-name="braceleft.tabular" horiz-adv-x="245" 
d="M120 -56l-79 79v251l-12 12h-34v129h34l12 12v239l79 79h114v-125h-39l-13 -13v-210l-45 -45l45 -45v-225l13 -13h39v-125h-114z" />
    <glyph glyph-name="braceright.tabular" horiz-adv-x="245" 
d="M204 23l-79 -79h-114v125h39l13 13v225l45 45l-45 45v210l-13 13h-39v125h114l79 -79v-239l12 -12h34v-129h-34l-12 -12v-251z" />
    <glyph glyph-name="zero.numerator" horiz-adv-x="336" 
d="M82 317l-57 57v259l57 57h172l57 -57v-259l-57 -57h-172zM151 405h34l14 14v169l-14 14h-34l-14 -14v-169z" />
    <glyph glyph-name="one.numerator" horiz-adv-x="260" 
d="M15 317v91h61v191h-57v91h170v-282h61v-91h-235z" />
    <glyph glyph-name="two.numerator" horiz-adv-x="323" 
d="M25 317v163l51 51h102l7 8v56l-9 9h-28l-9 -9v-30h-113v68l57 57h158l57 -57v-135l-51 -51h-101l-8 -8v-31h160v-91h-273z" />
    <glyph glyph-name="three.numerator" horiz-adv-x="314" 
d="M72 317l-57 57v59h113v-24l9 -9h36l9 9v47l-9 9h-96v80h96l9 9v44l-9 9h-36l-9 -9v-24h-113v59l57 57h165l57 -57v-87l-41 -41l41 -41v-90l-57 -57h-165z" />
    <glyph glyph-name="four.numerator" horiz-adv-x="329" 
d="M154 317v76h28v32h-170v58l44 207h96l-26 -180h56v180h111v-180h21v-85h-21v-32h21v-76h-160z" />
    <glyph glyph-name="five.numerator" horiz-adv-x="330" 
d="M84 317l-57 57v68h113v-36l9 -9h32l9 9v78l-9 8h-27l-20 -20h-107v218h271v-86h-158v-63l25 25h84l54 -54v-138l-57 -57h-162z" />
    <glyph glyph-name="six.numerator" horiz-adv-x="335" 
d="M82 317l-57 57v259l57 57h169l57 -57v-54h-111v19l-14 14h-31l-14 -14v-69l25 25h102l45 -45v-135l-57 -57h-171zM152 397h32l14 14v69l-14 14h-32l-14 -14v-69z" />
    <glyph glyph-name="seven.numerator" horiz-adv-x="285" 
d="M91 317v135l64 148h-60v-42h-88v132h271v-70l-75 -170v-133h-112z" />
    <glyph glyph-name="eight.numerator" horiz-adv-x="333" 
d="M79 317l-57 57v91l42 42l-42 42v84l57 57h175l57 -57v-84l-42 -42l42 -42v-91l-57 -57h-175zM143 395h47l9 9v58l-9 9h-47l-9 -9v-58zM143 542h47l9 9v52l-9 9h-47l-9 -9v-52z" />
    <glyph glyph-name="nine.numerator" horiz-adv-x="335" 
d="M84 317l-57 57v61h111v-25l14 -14h31l14 14v75l-25 -25h-102l-45 45v128l57 57h171l57 -57v-259l-57 -57h-169zM151 520h32l14 14v62l-14 14h-32l-14 -14v-62z" />
    <glyph glyph-name="zero.denominator" horiz-adv-x="336" 
d="M82 0l-57 57v259l57 57h172l57 -57v-259l-57 -57h-172zM151 88h34l14 14v169l-14 14h-34l-14 -14v-169z" />
    <glyph glyph-name="one.denominator" horiz-adv-x="260" 
d="M15 0v91h61v191h-57v91h170v-282h61v-91h-235z" />
    <glyph glyph-name="two.denominator" horiz-adv-x="323" 
d="M25 0v163l51 51h102l7 8v56l-9 9h-28l-9 -9v-30h-113v68l57 57h158l57 -57v-135l-51 -51h-101l-8 -8v-31h160v-91h-273z" />
    <glyph glyph-name="three.denominator" horiz-adv-x="314" 
d="M72 0l-57 57v59h113v-24l9 -9h36l9 9v47l-9 9h-96v80h96l9 9v44l-9 9h-36l-9 -9v-24h-113v59l57 57h165l57 -57v-87l-41 -41l41 -41v-90l-57 -57h-165z" />
    <glyph glyph-name="four.denominator" horiz-adv-x="329" 
d="M154 0v76h28v32h-170v58l44 207h96l-26 -180h56v180h111v-180h21v-85h-21v-32h21v-76h-160z" />
    <glyph glyph-name="five.denominator" horiz-adv-x="330" 
d="M84 0l-57 57v68h113v-36l9 -9h32l9 9v78l-9 8h-27l-20 -20h-107v218h271v-86h-158v-63l25 25h84l54 -54v-138l-57 -57h-162z" />
    <glyph glyph-name="six.denominator" horiz-adv-x="335" 
d="M82 0l-57 57v259l57 57h169l57 -57v-54h-111v19l-14 14h-31l-14 -14v-69l25 25h102l45 -45v-135l-57 -57h-171zM152 80h32l14 14v69l-14 14h-32l-14 -14v-69z" />
    <glyph glyph-name="seven.denominator" horiz-adv-x="285" 
d="M91 0v135l64 148h-60v-42h-88v132h271v-70l-75 -170v-133h-112z" />
    <glyph glyph-name="eight.denominator" horiz-adv-x="333" 
d="M79 0l-57 57v91l42 42l-42 42v84l57 57h175l57 -57v-84l-42 -42l42 -42v-91l-57 -57h-175zM143 78h47l9 9v58l-9 9h-47l-9 -9v-58zM143 225h47l9 9v52l-9 9h-47l-9 -9v-52z" />
    <glyph glyph-name="nine.denominator" horiz-adv-x="335" 
d="M84 0l-57 57v61h111v-25l14 -14h31l14 14v75l-25 -25h-102l-45 45v128l57 57h171l57 -57v-259l-57 -57h-169zM151 203h32l14 14v62l-14 14h-32l-14 -14v-62z" />
    </font>
</defs>
</svg>
